<mxfile host="app.diagrams.net" agent="Mozilla/5.0 (Macintosh; Intel Mac OS X 10_15_7) AppleWebKit/537.36 (KHTML, like Gecko) Chrome/135.0.0.0 Safari/537.36" version="26.2.9" pages="2">
  <diagram id="QL3Ry1wc7ldOxlqwXEX6" name="27/03">
    <mxGraphModel grid="1" page="1" gridSize="10" guides="1" tooltips="1" connect="1" arrows="1" fold="1" pageScale="1" pageWidth="1169" pageHeight="827" math="0" shadow="0">
      <root>
        <mxCell id="0" />
        <mxCell id="1" parent="0" />
        <mxCell id="mfN5j5FMAVyb_pTe65s7-1" value="" style="endArrow=none;dashed=1;html=1;dashPattern=12 12;strokeWidth=2;rounded=0;fillColor=#dae8fc;strokeColor=#6c8ebf;" edge="1" parent="1">
          <mxGeometry width="50" height="50" relative="1" as="geometry">
            <mxPoint x="19" y="1220" as="sourcePoint" />
            <mxPoint x="20" y="14" as="targetPoint" />
          </mxGeometry>
        </mxCell>
        <mxCell id="mfN5j5FMAVyb_pTe65s7-2" value="" style="endArrow=none;dashed=1;html=1;dashPattern=12 12;strokeWidth=2;rounded=0;fillColor=#dae8fc;strokeColor=#6c8ebf;" edge="1" parent="1">
          <mxGeometry width="50" height="50" relative="1" as="geometry">
            <mxPoint x="800" y="1250" as="sourcePoint" />
            <mxPoint x="800" y="40" as="targetPoint" />
          </mxGeometry>
        </mxCell>
        <mxCell id="mfN5j5FMAVyb_pTe65s7-3" value="&lt;font style=&quot;font-size: 30px;&quot;&gt;&lt;b&gt;Business&lt;/b&gt;&lt;/font&gt;" style="text;html=1;align=center;verticalAlign=middle;whiteSpace=wrap;rounded=0;" vertex="1" parent="1">
          <mxGeometry x="330" y="40" width="180" height="30" as="geometry" />
        </mxCell>
        <mxCell id="mfN5j5FMAVyb_pTe65s7-4" value="&lt;font style=&quot;font-size: 30px;&quot;&gt;&lt;b&gt;View&lt;/b&gt;&lt;/font&gt;" style="text;html=1;align=center;verticalAlign=middle;whiteSpace=wrap;rounded=0;" vertex="1" parent="1">
          <mxGeometry x="-250" y="40" width="180" height="30" as="geometry" />
        </mxCell>
        <mxCell id="mfN5j5FMAVyb_pTe65s7-5" value="&lt;font style=&quot;font-size: 30px;&quot;&gt;&lt;b&gt;Infra&lt;/b&gt;&lt;/font&gt;" style="text;html=1;align=center;verticalAlign=middle;whiteSpace=wrap;rounded=0;" vertex="1" parent="1">
          <mxGeometry x="1030" y="40" width="180" height="30" as="geometry" />
        </mxCell>
        <mxCell id="Vv-Q8fSaXxROo0xmz6hG-18" style="edgeStyle=orthogonalEdgeStyle;rounded=0;orthogonalLoop=1;jettySize=auto;html=1;entryX=0.5;entryY=1;entryDx=0;entryDy=0;endArrow=open;endFill=0;dashed=1;endSize=12;startSize=12;" edge="1" parent="1" source="gB5Y1k0HyoQZD1Wtt7Dn-1" target="Vv-Q8fSaXxROo0xmz6hG-6">
          <mxGeometry relative="1" as="geometry" />
        </mxCell>
        <mxCell id="gB5Y1k0HyoQZD1Wtt7Dn-1" value="&lt;b&gt;SupplierController&lt;/b&gt;" style="swimlane;fontStyle=1;align=center;verticalAlign=top;childLayout=stackLayout;horizontal=1;startSize=26;horizontalStack=0;resizeParent=1;resizeParentMax=0;resizeLast=0;collapsible=1;marginBottom=0;whiteSpace=wrap;html=1;" vertex="1" parent="1">
          <mxGeometry x="179.5" y="356" width="201" height="100" as="geometry">
            <mxRectangle x="180" y="364" width="150" height="30" as="alternateBounds" />
          </mxGeometry>
        </mxCell>
        <mxCell id="gB5Y1k0HyoQZD1Wtt7Dn-2" value="- suppliers: List&amp;lt;Supplier&amp;gt;" style="text;strokeColor=none;fillColor=none;align=left;verticalAlign=top;spacingLeft=4;spacingRight=4;overflow=hidden;rotatable=0;points=[[0,0.5],[1,0.5]];portConstraint=eastwest;whiteSpace=wrap;html=1;" vertex="1" parent="gB5Y1k0HyoQZD1Wtt7Dn-1">
          <mxGeometry y="26" width="201" height="24" as="geometry" />
        </mxCell>
        <mxCell id="gB5Y1k0HyoQZD1Wtt7Dn-3" value="" style="line;strokeWidth=1;fillColor=none;align=left;verticalAlign=middle;spacingTop=-1;spacingLeft=3;spacingRight=3;rotatable=0;labelPosition=right;points=[];portConstraint=eastwest;strokeColor=inherit;" vertex="1" parent="gB5Y1k0HyoQZD1Wtt7Dn-1">
          <mxGeometry y="50" width="201" height="8" as="geometry" />
        </mxCell>
        <mxCell id="gB5Y1k0HyoQZD1Wtt7Dn-4" value="+ addSupplier(name)&lt;div&gt;+ login(username, password)&lt;/div&gt;" style="text;strokeColor=none;fillColor=none;align=left;verticalAlign=top;spacingLeft=4;spacingRight=4;overflow=hidden;rotatable=0;points=[[0,0.5],[1,0.5]];portConstraint=eastwest;whiteSpace=wrap;html=1;" vertex="1" parent="gB5Y1k0HyoQZD1Wtt7Dn-1">
          <mxGeometry y="58" width="201" height="42" as="geometry" />
        </mxCell>
        <mxCell id="Vv-Q8fSaXxROo0xmz6hG-16" style="edgeStyle=orthogonalEdgeStyle;rounded=0;orthogonalLoop=1;jettySize=auto;html=1;entryX=0.5;entryY=1;entryDx=0;entryDy=0;endArrow=diamond;endFill=0;endSize=12;" edge="1" parent="1" source="y1ptUFQd2o1ErfU3pzcy-1" target="gB5Y1k0HyoQZD1Wtt7Dn-1">
          <mxGeometry relative="1" as="geometry">
            <mxPoint x="290" y="450" as="targetPoint" />
          </mxGeometry>
        </mxCell>
        <mxCell id="y1ptUFQd2o1ErfU3pzcy-1" value="&lt;b&gt;Supplier&lt;/b&gt;" style="swimlane;fontStyle=1;align=center;verticalAlign=top;childLayout=stackLayout;horizontal=1;startSize=26;horizontalStack=0;resizeParent=1;resizeParentMax=0;resizeLast=0;collapsible=1;marginBottom=0;whiteSpace=wrap;html=1;" vertex="1" parent="1">
          <mxGeometry x="405.5" y="470" width="160" height="114" as="geometry" />
        </mxCell>
        <mxCell id="y1ptUFQd2o1ErfU3pzcy-2" value="+ name&lt;div&gt;+ username&lt;/div&gt;&lt;div&gt;+ password&lt;/div&gt;" style="text;strokeColor=none;fillColor=none;align=left;verticalAlign=top;spacingLeft=4;spacingRight=4;overflow=hidden;rotatable=0;points=[[0,0.5],[1,0.5]];portConstraint=eastwest;whiteSpace=wrap;html=1;" vertex="1" parent="y1ptUFQd2o1ErfU3pzcy-1">
          <mxGeometry y="26" width="160" height="54" as="geometry" />
        </mxCell>
        <mxCell id="y1ptUFQd2o1ErfU3pzcy-3" value="" style="line;strokeWidth=1;fillColor=none;align=left;verticalAlign=middle;spacingTop=-1;spacingLeft=3;spacingRight=3;rotatable=0;labelPosition=right;points=[];portConstraint=eastwest;strokeColor=inherit;" vertex="1" parent="y1ptUFQd2o1ErfU3pzcy-1">
          <mxGeometry y="80" width="160" height="8" as="geometry" />
        </mxCell>
        <mxCell id="y1ptUFQd2o1ErfU3pzcy-4" value="+ toSring()" style="text;strokeColor=none;fillColor=none;align=left;verticalAlign=top;spacingLeft=4;spacingRight=4;overflow=hidden;rotatable=0;points=[[0,0.5],[1,0.5]];portConstraint=eastwest;whiteSpace=wrap;html=1;" vertex="1" parent="y1ptUFQd2o1ErfU3pzcy-1">
          <mxGeometry y="88" width="160" height="26" as="geometry" />
        </mxCell>
        <mxCell id="vtW9LHkK-7iQcfDU1YJa-1" style="rounded=0;orthogonalLoop=1;jettySize=auto;html=1;entryX=0.5;entryY=1;entryDx=0;entryDy=0;endArrow=open;endFill=0;endSize=12;dashed=1;" edge="1" parent="1" source="vtW9LHkK-7iQcfDU1YJa-2" target="vtW9LHkK-7iQcfDU1YJa-11">
          <mxGeometry relative="1" as="geometry" />
        </mxCell>
        <mxCell id="X-29sa1S6aLxrIAXwsSO-25" style="edgeStyle=orthogonalEdgeStyle;rounded=0;orthogonalLoop=1;jettySize=auto;html=1;entryX=0.5;entryY=0;entryDx=0;entryDy=0;endArrow=none;startFill=0;startArrow=open;endSize=12;startSize=12;" edge="1" parent="1" source="vtW9LHkK-7iQcfDU1YJa-2" target="X-29sa1S6aLxrIAXwsSO-16">
          <mxGeometry relative="1" as="geometry" />
        </mxCell>
        <mxCell id="vtW9LHkK-7iQcfDU1YJa-2" value="&lt;div&gt;&lt;span style=&quot;font-weight: normal;&quot;&gt;&lt;i&gt;&amp;lt;&amp;lt;interface&amp;gt;&amp;gt;&lt;/i&gt;&lt;/span&gt;&lt;/div&gt;&lt;b&gt;ISupplierRepository&lt;/b&gt;" style="swimlane;fontStyle=1;align=center;verticalAlign=top;childLayout=stackLayout;horizontal=1;startSize=40;horizontalStack=0;resizeParent=1;resizeParentMax=0;resizeLast=0;collapsible=1;marginBottom=0;whiteSpace=wrap;html=1;" vertex="1" parent="1">
          <mxGeometry x="1040" y="330" width="185.5" height="150" as="geometry">
            <mxRectangle x="860" y="330" width="150" height="50" as="alternateBounds" />
          </mxGeometry>
        </mxCell>
        <mxCell id="vtW9LHkK-7iQcfDU1YJa-3" value="" style="line;strokeWidth=1;fillColor=none;align=left;verticalAlign=middle;spacingTop=-1;spacingLeft=3;spacingRight=3;rotatable=0;labelPosition=right;points=[];portConstraint=eastwest;strokeColor=inherit;" vertex="1" parent="vtW9LHkK-7iQcfDU1YJa-2">
          <mxGeometry y="40" width="185.5" height="20" as="geometry" />
        </mxCell>
        <mxCell id="vtW9LHkK-7iQcfDU1YJa-4" value="+ create(supplier)&lt;div&gt;+ delete(username)&lt;/div&gt;&lt;div&gt;+ update(username, supplier)&lt;/div&gt;&lt;div&gt;+ get(username)&lt;/div&gt;&lt;div&gt;+ getAll()&lt;/div&gt;" style="text;strokeColor=none;fillColor=none;align=left;verticalAlign=top;spacingLeft=4;spacingRight=4;overflow=hidden;rotatable=0;points=[[0,0.5],[1,0.5]];portConstraint=eastwest;whiteSpace=wrap;html=1;" vertex="1" parent="vtW9LHkK-7iQcfDU1YJa-2">
          <mxGeometry y="60" width="185.5" height="90" as="geometry" />
        </mxCell>
        <mxCell id="vtW9LHkK-7iQcfDU1YJa-5" style="rounded=0;orthogonalLoop=1;jettySize=auto;html=1;entryX=1;entryY=0.5;entryDx=0;entryDy=0;endSize=12;endArrow=block;endFill=0;dashed=1;edgeStyle=orthogonalEdgeStyle;" edge="1" parent="1" source="vtW9LHkK-7iQcfDU1YJa-6" target="vtW9LHkK-7iQcfDU1YJa-2">
          <mxGeometry relative="1" as="geometry">
            <mxPoint x="968.5" y="497" as="targetPoint" />
          </mxGeometry>
        </mxCell>
        <mxCell id="X-29sa1S6aLxrIAXwsSO-62" style="edgeStyle=orthogonalEdgeStyle;rounded=0;orthogonalLoop=1;jettySize=auto;html=1;entryX=0;entryY=0.5;entryDx=0;entryDy=0;endArrow=open;endFill=0;endSize=12;" edge="1" parent="1" source="vtW9LHkK-7iQcfDU1YJa-6" target="X-29sa1S6aLxrIAXwsSO-20">
          <mxGeometry relative="1" as="geometry">
            <Array as="points">
              <mxPoint x="1770" y="315" />
              <mxPoint x="1770" y="609" />
            </Array>
          </mxGeometry>
        </mxCell>
        <mxCell id="vtW9LHkK-7iQcfDU1YJa-6" value="&lt;b&gt;SQLSupplierRepository&lt;/b&gt;" style="swimlane;fontStyle=1;align=center;verticalAlign=top;childLayout=stackLayout;horizontal=1;startSize=26;horizontalStack=0;resizeParent=1;resizeParentMax=0;resizeLast=0;collapsible=1;marginBottom=0;whiteSpace=wrap;html=1;" collapsed="1" vertex="1" parent="1">
          <mxGeometry x="1480" y="300" width="190" height="30" as="geometry">
            <mxRectangle x="1220" y="330" width="220" height="50" as="alternateBounds" />
          </mxGeometry>
        </mxCell>
        <mxCell id="vtW9LHkK-7iQcfDU1YJa-7" value="" style="line;strokeWidth=1;fillColor=none;align=left;verticalAlign=middle;spacingTop=-1;spacingLeft=3;spacingRight=3;rotatable=0;labelPosition=right;points=[];portConstraint=eastwest;strokeColor=inherit;" vertex="1" parent="vtW9LHkK-7iQcfDU1YJa-6">
          <mxGeometry y="26" width="220" height="24" as="geometry" />
        </mxCell>
        <mxCell id="X-29sa1S6aLxrIAXwsSO-60" style="edgeStyle=orthogonalEdgeStyle;rounded=0;orthogonalLoop=1;jettySize=auto;html=1;entryX=0;entryY=0.5;entryDx=0;entryDy=0;endArrow=open;endFill=0;endSize=12;" edge="1" parent="1" source="vtW9LHkK-7iQcfDU1YJa-8" target="X-29sa1S6aLxrIAXwsSO-20">
          <mxGeometry relative="1" as="geometry">
            <Array as="points">
              <mxPoint x="1760" y="445" />
              <mxPoint x="1760" y="609" />
            </Array>
          </mxGeometry>
        </mxCell>
        <mxCell id="vtW9LHkK-7iQcfDU1YJa-8" value="&lt;b&gt;InMemorySupplierRepository&lt;/b&gt;" style="swimlane;fontStyle=1;align=center;verticalAlign=top;childLayout=stackLayout;horizontal=1;startSize=26;horizontalStack=0;resizeParent=1;resizeParentMax=0;resizeLast=0;collapsible=1;marginBottom=0;whiteSpace=wrap;html=1;" collapsed="1" vertex="1" parent="1">
          <mxGeometry x="1480" y="430" width="210" height="30" as="geometry">
            <mxRectangle x="744.5" y="763" width="190" height="50" as="alternateBounds" />
          </mxGeometry>
        </mxCell>
        <mxCell id="vtW9LHkK-7iQcfDU1YJa-9" value="" style="line;strokeWidth=1;fillColor=none;align=left;verticalAlign=middle;spacingTop=-1;spacingLeft=3;spacingRight=3;rotatable=0;labelPosition=right;points=[];portConstraint=eastwest;strokeColor=inherit;" vertex="1" parent="vtW9LHkK-7iQcfDU1YJa-8">
          <mxGeometry y="26" width="190" height="24" as="geometry" />
        </mxCell>
        <mxCell id="vtW9LHkK-7iQcfDU1YJa-10" style="rounded=0;orthogonalLoop=1;jettySize=auto;html=1;entryX=1;entryY=0.5;entryDx=0;entryDy=0;endSize=12;endArrow=block;endFill=0;dashed=1;edgeStyle=orthogonalEdgeStyle;" edge="1" parent="1" source="vtW9LHkK-7iQcfDU1YJa-8" target="vtW9LHkK-7iQcfDU1YJa-2">
          <mxGeometry relative="1" as="geometry">
            <Array as="points">
              <mxPoint x="1360" y="455" />
              <mxPoint x="1360" y="405" />
            </Array>
          </mxGeometry>
        </mxCell>
        <mxCell id="vtW9LHkK-7iQcfDU1YJa-11" value="PersistenceException" style="swimlane;fontStyle=1;align=center;verticalAlign=top;childLayout=stackLayout;horizontal=1;startSize=26;horizontalStack=0;resizeParent=1;resizeParentMax=0;resizeLast=0;collapsible=1;marginBottom=0;whiteSpace=wrap;html=1;" collapsed="1" vertex="1" parent="1">
          <mxGeometry x="1046.5" y="240" width="179" height="30" as="geometry">
            <mxRectangle x="441.5" y="880" width="160" height="34" as="alternateBounds" />
          </mxGeometry>
        </mxCell>
        <mxCell id="vtW9LHkK-7iQcfDU1YJa-12" value="" style="line;strokeWidth=1;fillColor=none;align=left;verticalAlign=middle;spacingTop=-1;spacingLeft=3;spacingRight=3;rotatable=0;labelPosition=right;points=[];portConstraint=eastwest;strokeColor=inherit;" vertex="1" parent="vtW9LHkK-7iQcfDU1YJa-11">
          <mxGeometry y="26" width="160" height="8" as="geometry" />
        </mxCell>
        <mxCell id="Vv-Q8fSaXxROo0xmz6hG-17" style="edgeStyle=orthogonalEdgeStyle;rounded=0;orthogonalLoop=1;jettySize=auto;html=1;entryX=0;entryY=0.5;entryDx=0;entryDy=0;endArrow=open;endFill=0;dashed=1;endSize=12;startSize=12;" edge="1" parent="1" source="a6q3OOpY8-t0Fjljw6EO-1" target="gB5Y1k0HyoQZD1Wtt7Dn-1">
          <mxGeometry relative="1" as="geometry">
            <mxPoint x="120" y="400" as="targetPoint" />
          </mxGeometry>
        </mxCell>
        <mxCell id="a6q3OOpY8-t0Fjljw6EO-1" value="SupplierView" style="swimlane;fontStyle=1;align=center;verticalAlign=top;childLayout=stackLayout;horizontal=1;startSize=26;horizontalStack=0;resizeParent=1;resizeParentMax=0;resizeLast=0;collapsible=1;marginBottom=0;whiteSpace=wrap;html=1;" vertex="1" parent="1">
          <mxGeometry x="-280" y="389" width="220" height="34" as="geometry" />
        </mxCell>
        <mxCell id="a6q3OOpY8-t0Fjljw6EO-2" value="" style="line;strokeWidth=1;fillColor=none;align=left;verticalAlign=middle;spacingTop=-1;spacingLeft=3;spacingRight=3;rotatable=0;labelPosition=right;points=[];portConstraint=eastwest;strokeColor=inherit;" vertex="1" parent="a6q3OOpY8-t0Fjljw6EO-1">
          <mxGeometry y="26" width="220" height="8" as="geometry" />
        </mxCell>
        <mxCell id="Vv-Q8fSaXxROo0xmz6hG-2" value="&lt;i style=&quot;font-weight: normal;&quot;&gt;&amp;lt;&amp;lt;interface&amp;gt;&amp;gt;&lt;/i&gt;&lt;br&gt;IPasswordValidator" style="swimlane;fontStyle=1;align=center;verticalAlign=top;childLayout=stackLayout;horizontal=1;startSize=39;horizontalStack=0;resizeParent=1;resizeParentMax=0;resizeLast=0;collapsible=1;marginBottom=0;whiteSpace=wrap;html=1;" vertex="1" parent="1">
          <mxGeometry x="526" y="183" width="201" height="47" as="geometry">
            <mxRectangle x="488.5" y="351" width="140" height="49" as="alternateBounds" />
          </mxGeometry>
        </mxCell>
        <mxCell id="Vv-Q8fSaXxROo0xmz6hG-3" value="" style="line;strokeWidth=1;fillColor=none;align=left;verticalAlign=middle;spacingTop=-1;spacingLeft=3;spacingRight=3;rotatable=0;labelPosition=right;points=[];portConstraint=eastwest;strokeColor=inherit;" vertex="1" parent="Vv-Q8fSaXxROo0xmz6hG-2">
          <mxGeometry y="39" width="201" height="8" as="geometry" />
        </mxCell>
        <mxCell id="Vv-Q8fSaXxROo0xmz6hG-4" value="&lt;span style=&quot;font-weight: normal;&quot;&gt;&lt;i&gt;&amp;lt;&amp;lt;interface&amp;gt;&amp;gt;&lt;/i&gt;&lt;/span&gt;&lt;br&gt;IUsernameValidator" style="swimlane;fontStyle=1;align=center;verticalAlign=top;childLayout=stackLayout;horizontal=1;startSize=44;horizontalStack=0;resizeParent=1;resizeParentMax=0;resizeLast=0;collapsible=1;marginBottom=0;whiteSpace=wrap;html=1;" vertex="1" parent="1">
          <mxGeometry x="530" y="252" width="201" height="52" as="geometry">
            <mxRectangle x="488.5" y="446" width="150" height="54" as="alternateBounds" />
          </mxGeometry>
        </mxCell>
        <mxCell id="Vv-Q8fSaXxROo0xmz6hG-5" value="" style="line;strokeWidth=1;fillColor=none;align=left;verticalAlign=middle;spacingTop=-1;spacingLeft=3;spacingRight=3;rotatable=0;labelPosition=right;points=[];portConstraint=eastwest;strokeColor=inherit;" vertex="1" parent="Vv-Q8fSaXxROo0xmz6hG-4">
          <mxGeometry y="44" width="201" height="8" as="geometry" />
        </mxCell>
        <mxCell id="Vv-Q8fSaXxROo0xmz6hG-6" value="&lt;b&gt;SupplierServices&lt;/b&gt;" style="swimlane;fontStyle=1;align=center;verticalAlign=top;childLayout=stackLayout;horizontal=1;startSize=26;horizontalStack=0;resizeParent=1;resizeParentMax=0;resizeLast=0;collapsible=1;marginBottom=0;whiteSpace=wrap;html=1;" vertex="1" parent="1">
          <mxGeometry x="154.5" y="230" width="251" height="34" as="geometry">
            <mxRectangle x="110" y="380" width="140" height="30" as="alternateBounds" />
          </mxGeometry>
        </mxCell>
        <mxCell id="Vv-Q8fSaXxROo0xmz6hG-7" value="" style="line;strokeWidth=1;fillColor=none;align=left;verticalAlign=middle;spacingTop=-1;spacingLeft=3;spacingRight=3;rotatable=0;labelPosition=right;points=[];portConstraint=eastwest;strokeColor=inherit;" vertex="1" parent="Vv-Q8fSaXxROo0xmz6hG-6">
          <mxGeometry y="26" width="251" height="8" as="geometry" />
        </mxCell>
        <mxCell id="Vv-Q8fSaXxROo0xmz6hG-8" style="rounded=0;orthogonalLoop=1;jettySize=auto;html=1;dashed=1;endArrow=open;endFill=0;endSize=12;edgeStyle=orthogonalEdgeStyle;entryX=0;entryY=0.5;entryDx=0;entryDy=0;exitX=1;exitY=0.5;exitDx=0;exitDy=0;" edge="1" parent="1" source="Vv-Q8fSaXxROo0xmz6hG-6" target="Vv-Q8fSaXxROo0xmz6hG-4">
          <mxGeometry relative="1" as="geometry">
            <mxPoint x="367.5" y="270" as="sourcePoint" />
            <mxPoint x="500" y="286" as="targetPoint" />
            <Array as="points">
              <mxPoint x="460" y="247" />
              <mxPoint x="460" y="278" />
            </Array>
          </mxGeometry>
        </mxCell>
        <mxCell id="Vv-Q8fSaXxROo0xmz6hG-9" style="rounded=0;orthogonalLoop=1;jettySize=auto;html=1;dashed=1;endArrow=open;endFill=0;endSize=12;exitX=1;exitY=0.5;exitDx=0;exitDy=0;edgeStyle=orthogonalEdgeStyle;entryX=0;entryY=0.5;entryDx=0;entryDy=0;" edge="1" parent="1" source="Vv-Q8fSaXxROo0xmz6hG-6" target="Vv-Q8fSaXxROo0xmz6hG-2">
          <mxGeometry relative="1" as="geometry">
            <mxPoint x="298" y="454" as="sourcePoint" />
            <mxPoint x="523.5" y="230" as="targetPoint" />
          </mxGeometry>
        </mxCell>
        <mxCell id="Vv-Q8fSaXxROo0xmz6hG-10" value="InvalidPasswordException" style="swimlane;fontStyle=1;align=center;verticalAlign=top;childLayout=stackLayout;horizontal=1;startSize=26;horizontalStack=0;resizeParent=1;resizeParentMax=0;resizeLast=0;collapsible=1;marginBottom=0;whiteSpace=wrap;html=1;" collapsed="1" vertex="1" parent="1">
          <mxGeometry x="60" y="100" width="180" height="30" as="geometry">
            <mxRectangle x="-40" y="280" width="180" height="34" as="alternateBounds" />
          </mxGeometry>
        </mxCell>
        <mxCell id="Vv-Q8fSaXxROo0xmz6hG-11" value="" style="line;strokeWidth=1;fillColor=none;align=left;verticalAlign=middle;spacingTop=-1;spacingLeft=3;spacingRight=3;rotatable=0;labelPosition=right;points=[];portConstraint=eastwest;strokeColor=inherit;" vertex="1" parent="Vv-Q8fSaXxROo0xmz6hG-10">
          <mxGeometry y="26" width="180" height="8" as="geometry" />
        </mxCell>
        <mxCell id="Vv-Q8fSaXxROo0xmz6hG-12" value="InvalidUsernameException" style="swimlane;fontStyle=1;align=center;verticalAlign=top;childLayout=stackLayout;horizontal=1;startSize=26;horizontalStack=0;resizeParent=1;resizeParentMax=0;resizeLast=0;collapsible=1;marginBottom=0;whiteSpace=wrap;html=1;" collapsed="1" vertex="1" parent="1">
          <mxGeometry x="290" y="100" width="180" height="30" as="geometry">
            <mxRectangle x="220" y="288" width="180" height="34" as="alternateBounds" />
          </mxGeometry>
        </mxCell>
        <mxCell id="Vv-Q8fSaXxROo0xmz6hG-13" value="" style="line;strokeWidth=1;fillColor=none;align=left;verticalAlign=middle;spacingTop=-1;spacingLeft=3;spacingRight=3;rotatable=0;labelPosition=right;points=[];portConstraint=eastwest;strokeColor=inherit;" vertex="1" parent="Vv-Q8fSaXxROo0xmz6hG-12">
          <mxGeometry y="26" width="180" height="8" as="geometry" />
        </mxCell>
        <mxCell id="Vv-Q8fSaXxROo0xmz6hG-14" style="rounded=0;orthogonalLoop=1;jettySize=auto;html=1;entryX=0.5;entryY=1;entryDx=0;entryDy=0;dashed=1;endArrow=open;endFill=0;endSize=12;edgeStyle=orthogonalEdgeStyle;" edge="1" parent="1" source="Vv-Q8fSaXxROo0xmz6hG-6" target="Vv-Q8fSaXxROo0xmz6hG-12">
          <mxGeometry relative="1" as="geometry">
            <mxPoint x="401.46000000000004" y="115" as="targetPoint" />
          </mxGeometry>
        </mxCell>
        <mxCell id="Vv-Q8fSaXxROo0xmz6hG-15" style="rounded=0;orthogonalLoop=1;jettySize=auto;html=1;entryX=0.5;entryY=1;entryDx=0;entryDy=0;endArrow=open;endFill=0;endSize=12;dashed=1;edgeStyle=orthogonalEdgeStyle;" edge="1" parent="1" source="Vv-Q8fSaXxROo0xmz6hG-6" target="Vv-Q8fSaXxROo0xmz6hG-10">
          <mxGeometry relative="1" as="geometry">
            <mxPoint x="144.51999999999998" y="83.00199999999995" as="targetPoint" />
          </mxGeometry>
        </mxCell>
        <mxCell id="Vv-Q8fSaXxROo0xmz6hG-21" style="edgeStyle=orthogonalEdgeStyle;rounded=0;orthogonalLoop=1;jettySize=auto;html=1;entryX=0.5;entryY=1;entryDx=0;entryDy=0;endArrow=open;endFill=0;dashed=1;endSize=12;startSize=12;" edge="1" parent="1" source="Vv-Q8fSaXxROo0xmz6hG-23" target="Vv-Q8fSaXxROo0xmz6hG-51">
          <mxGeometry relative="1" as="geometry" />
        </mxCell>
        <mxCell id="Vv-Q8fSaXxROo0xmz6hG-22" style="edgeStyle=orthogonalEdgeStyle;rounded=0;orthogonalLoop=1;jettySize=auto;html=1;entryX=0;entryY=0.5;entryDx=0;entryDy=0;endArrow=open;endFill=0;dashed=1;endSize=12;startSize=12;exitX=1.005;exitY=-0.048;exitDx=0;exitDy=0;exitPerimeter=0;" edge="1" parent="1" source="Vv-Q8fSaXxROo0xmz6hG-26" target="X-29sa1S6aLxrIAXwsSO-19">
          <mxGeometry relative="1" as="geometry">
            <mxPoint x="830" y="912.9999999999999" as="targetPoint" />
          </mxGeometry>
        </mxCell>
        <mxCell id="Vv-Q8fSaXxROo0xmz6hG-23" value="&lt;b&gt;KitchenController&lt;/b&gt;" style="swimlane;fontStyle=1;align=center;verticalAlign=top;childLayout=stackLayout;horizontal=1;startSize=26;horizontalStack=0;resizeParent=1;resizeParentMax=0;resizeLast=0;collapsible=1;marginBottom=0;whiteSpace=wrap;html=1;" vertex="1" parent="1">
          <mxGeometry x="187" y="857" width="201" height="100" as="geometry">
            <mxRectangle x="189.5" y="859" width="150" height="30" as="alternateBounds" />
          </mxGeometry>
        </mxCell>
        <mxCell id="Vv-Q8fSaXxROo0xmz6hG-24" value="- kitchens: List&amp;lt;Kitchen&amp;gt;" style="text;strokeColor=none;fillColor=none;align=left;verticalAlign=top;spacingLeft=4;spacingRight=4;overflow=hidden;rotatable=0;points=[[0,0.5],[1,0.5]];portConstraint=eastwest;whiteSpace=wrap;html=1;" vertex="1" parent="Vv-Q8fSaXxROo0xmz6hG-23">
          <mxGeometry y="26" width="201" height="24" as="geometry" />
        </mxCell>
        <mxCell id="Vv-Q8fSaXxROo0xmz6hG-25" value="" style="line;strokeWidth=1;fillColor=none;align=left;verticalAlign=middle;spacingTop=-1;spacingLeft=3;spacingRight=3;rotatable=0;labelPosition=right;points=[];portConstraint=eastwest;strokeColor=inherit;" vertex="1" parent="Vv-Q8fSaXxROo0xmz6hG-23">
          <mxGeometry y="50" width="201" height="8" as="geometry" />
        </mxCell>
        <mxCell id="Vv-Q8fSaXxROo0xmz6hG-26" value="+ add_kitchen(name)" style="text;strokeColor=none;fillColor=none;align=left;verticalAlign=top;spacingLeft=4;spacingRight=4;overflow=hidden;rotatable=0;points=[[0,0.5],[1,0.5]];portConstraint=eastwest;whiteSpace=wrap;html=1;" vertex="1" parent="Vv-Q8fSaXxROo0xmz6hG-23">
          <mxGeometry y="58" width="201" height="42" as="geometry" />
        </mxCell>
        <mxCell id="Vv-Q8fSaXxROo0xmz6hG-27" style="edgeStyle=orthogonalEdgeStyle;rounded=0;orthogonalLoop=1;jettySize=auto;html=1;entryX=0.5;entryY=1;entryDx=0;entryDy=0;endArrow=diamond;endFill=0;endSize=12;" edge="1" parent="1" source="Vv-Q8fSaXxROo0xmz6hG-28" target="Vv-Q8fSaXxROo0xmz6hG-23">
          <mxGeometry relative="1" as="geometry">
            <mxPoint x="297.5" y="986" as="targetPoint" />
          </mxGeometry>
        </mxCell>
        <mxCell id="Vv-Q8fSaXxROo0xmz6hG-28" value="&lt;b&gt;Kitchen&lt;/b&gt;" style="swimlane;fontStyle=1;align=center;verticalAlign=top;childLayout=stackLayout;horizontal=1;startSize=26;horizontalStack=0;resizeParent=1;resizeParentMax=0;resizeLast=0;collapsible=1;marginBottom=0;whiteSpace=wrap;html=1;" vertex="1" parent="1">
          <mxGeometry x="413" y="1006" width="160" height="114" as="geometry" />
        </mxCell>
        <mxCell id="Vv-Q8fSaXxROo0xmz6hG-29" value="+ name&lt;div&gt;+ username&lt;/div&gt;&lt;div&gt;+ password&lt;/div&gt;" style="text;strokeColor=none;fillColor=none;align=left;verticalAlign=top;spacingLeft=4;spacingRight=4;overflow=hidden;rotatable=0;points=[[0,0.5],[1,0.5]];portConstraint=eastwest;whiteSpace=wrap;html=1;" vertex="1" parent="Vv-Q8fSaXxROo0xmz6hG-28">
          <mxGeometry y="26" width="160" height="54" as="geometry" />
        </mxCell>
        <mxCell id="Vv-Q8fSaXxROo0xmz6hG-30" value="" style="line;strokeWidth=1;fillColor=none;align=left;verticalAlign=middle;spacingTop=-1;spacingLeft=3;spacingRight=3;rotatable=0;labelPosition=right;points=[];portConstraint=eastwest;strokeColor=inherit;" vertex="1" parent="Vv-Q8fSaXxROo0xmz6hG-28">
          <mxGeometry y="80" width="160" height="8" as="geometry" />
        </mxCell>
        <mxCell id="Vv-Q8fSaXxROo0xmz6hG-31" value="+ toSring()" style="text;strokeColor=none;fillColor=none;align=left;verticalAlign=top;spacingLeft=4;spacingRight=4;overflow=hidden;rotatable=0;points=[[0,0.5],[1,0.5]];portConstraint=eastwest;whiteSpace=wrap;html=1;" vertex="1" parent="Vv-Q8fSaXxROo0xmz6hG-28">
          <mxGeometry y="88" width="160" height="26" as="geometry" />
        </mxCell>
        <mxCell id="Vv-Q8fSaXxROo0xmz6hG-32" style="edgeStyle=orthogonalEdgeStyle;rounded=0;orthogonalLoop=1;jettySize=auto;html=1;entryX=0.5;entryY=0;entryDx=0;entryDy=0;endArrow=open;endFill=0;endSize=12;dashed=1;" edge="1" parent="1" source="Vv-Q8fSaXxROo0xmz6hG-33" target="Vv-Q8fSaXxROo0xmz6hG-42">
          <mxGeometry relative="1" as="geometry" />
        </mxCell>
        <mxCell id="Vv-Q8fSaXxROo0xmz6hG-33" value="&lt;div&gt;&lt;span style=&quot;font-weight: normal;&quot;&gt;&lt;i&gt;&amp;lt;&amp;lt;interface&amp;gt;&amp;gt;&lt;/i&gt;&lt;/span&gt;&lt;/div&gt;&lt;b&gt;I&lt;/b&gt;&lt;b&gt;Kitchen&lt;/b&gt;&lt;b&gt;Repository&lt;/b&gt;" style="swimlane;fontStyle=1;align=center;verticalAlign=top;childLayout=stackLayout;horizontal=1;startSize=40;horizontalStack=0;resizeParent=1;resizeParentMax=0;resizeLast=0;collapsible=1;marginBottom=0;whiteSpace=wrap;html=1;" vertex="1" parent="1">
          <mxGeometry x="1040" y="840" width="185.5" height="150" as="geometry">
            <mxRectangle x="860" y="330" width="150" height="50" as="alternateBounds" />
          </mxGeometry>
        </mxCell>
        <mxCell id="Vv-Q8fSaXxROo0xmz6hG-34" value="" style="line;strokeWidth=1;fillColor=none;align=left;verticalAlign=middle;spacingTop=-1;spacingLeft=3;spacingRight=3;rotatable=0;labelPosition=right;points=[];portConstraint=eastwest;strokeColor=inherit;" vertex="1" parent="Vv-Q8fSaXxROo0xmz6hG-33">
          <mxGeometry y="40" width="185.5" height="20" as="geometry" />
        </mxCell>
        <mxCell id="Vv-Q8fSaXxROo0xmz6hG-35" value="+ create(kitchen)&lt;div&gt;+ delete(alias)&lt;/div&gt;&lt;div&gt;+ update(alias, kitchen)&lt;/div&gt;&lt;div&gt;+ get(alias)&lt;/div&gt;&lt;div&gt;+ getAll()&lt;/div&gt;" style="text;strokeColor=none;fillColor=none;align=left;verticalAlign=top;spacingLeft=4;spacingRight=4;overflow=hidden;rotatable=0;points=[[0,0.5],[1,0.5]];portConstraint=eastwest;whiteSpace=wrap;html=1;" vertex="1" parent="Vv-Q8fSaXxROo0xmz6hG-33">
          <mxGeometry y="60" width="185.5" height="90" as="geometry" />
        </mxCell>
        <mxCell id="Vv-Q8fSaXxROo0xmz6hG-36" style="rounded=0;orthogonalLoop=1;jettySize=auto;html=1;entryX=1;entryY=0.5;entryDx=0;entryDy=0;endSize=12;endArrow=block;endFill=0;dashed=1;edgeStyle=orthogonalEdgeStyle;" edge="1" parent="1" source="Vv-Q8fSaXxROo0xmz6hG-37" target="Vv-Q8fSaXxROo0xmz6hG-33">
          <mxGeometry relative="1" as="geometry">
            <mxPoint x="978.5" y="1000" as="targetPoint" />
          </mxGeometry>
        </mxCell>
        <mxCell id="X-29sa1S6aLxrIAXwsSO-58" style="edgeStyle=orthogonalEdgeStyle;rounded=0;orthogonalLoop=1;jettySize=auto;html=1;entryX=0;entryY=0.5;entryDx=0;entryDy=0;endArrow=open;endFill=0;endSize=12;" edge="1" parent="1" source="Vv-Q8fSaXxROo0xmz6hG-37" target="X-29sa1S6aLxrIAXwsSO-20">
          <mxGeometry relative="1" as="geometry">
            <Array as="points">
              <mxPoint x="1760" y="848" />
              <mxPoint x="1760" y="609" />
            </Array>
          </mxGeometry>
        </mxCell>
        <mxCell id="Vv-Q8fSaXxROo0xmz6hG-37" value="&lt;b&gt;SQL&lt;/b&gt;&lt;b&gt;Kitchen&lt;/b&gt;&lt;b&gt;Repository&lt;/b&gt;" style="swimlane;fontStyle=1;align=center;verticalAlign=top;childLayout=stackLayout;horizontal=1;startSize=26;horizontalStack=0;resizeParent=1;resizeParentMax=0;resizeLast=0;collapsible=1;marginBottom=0;whiteSpace=wrap;html=1;" collapsed="1" vertex="1" parent="1">
          <mxGeometry x="1470" y="833" width="190" height="30" as="geometry">
            <mxRectangle x="729.5" y="683" width="220" height="50" as="alternateBounds" />
          </mxGeometry>
        </mxCell>
        <mxCell id="Vv-Q8fSaXxROo0xmz6hG-38" value="" style="line;strokeWidth=1;fillColor=none;align=left;verticalAlign=middle;spacingTop=-1;spacingLeft=3;spacingRight=3;rotatable=0;labelPosition=right;points=[];portConstraint=eastwest;strokeColor=inherit;" vertex="1" parent="Vv-Q8fSaXxROo0xmz6hG-37">
          <mxGeometry y="26" width="220" height="24" as="geometry" />
        </mxCell>
        <mxCell id="X-29sa1S6aLxrIAXwsSO-61" style="edgeStyle=orthogonalEdgeStyle;rounded=0;orthogonalLoop=1;jettySize=auto;html=1;entryX=0;entryY=0.5;entryDx=0;entryDy=0;endArrow=open;endFill=0;endSize=12;" edge="1" parent="1" source="Vv-Q8fSaXxROo0xmz6hG-39" target="X-29sa1S6aLxrIAXwsSO-20">
          <mxGeometry relative="1" as="geometry">
            <Array as="points">
              <mxPoint x="1750" y="955" />
              <mxPoint x="1750" y="609" />
            </Array>
          </mxGeometry>
        </mxCell>
        <mxCell id="Vv-Q8fSaXxROo0xmz6hG-39" value="&lt;b&gt;InMemory&lt;/b&gt;&lt;b&gt;Kitchen&lt;/b&gt;&lt;b&gt;Repository&lt;/b&gt;" style="swimlane;fontStyle=1;align=center;verticalAlign=top;childLayout=stackLayout;horizontal=1;startSize=26;horizontalStack=0;resizeParent=1;resizeParentMax=0;resizeLast=0;collapsible=1;marginBottom=0;whiteSpace=wrap;html=1;" collapsed="1" vertex="1" parent="1">
          <mxGeometry x="1470" y="940" width="210" height="30" as="geometry">
            <mxRectangle x="744.5" y="763" width="190" height="50" as="alternateBounds" />
          </mxGeometry>
        </mxCell>
        <mxCell id="Vv-Q8fSaXxROo0xmz6hG-40" value="" style="line;strokeWidth=1;fillColor=none;align=left;verticalAlign=middle;spacingTop=-1;spacingLeft=3;spacingRight=3;rotatable=0;labelPosition=right;points=[];portConstraint=eastwest;strokeColor=inherit;" vertex="1" parent="Vv-Q8fSaXxROo0xmz6hG-39">
          <mxGeometry y="26" width="190" height="24" as="geometry" />
        </mxCell>
        <mxCell id="Vv-Q8fSaXxROo0xmz6hG-41" style="rounded=0;orthogonalLoop=1;jettySize=auto;html=1;entryX=1;entryY=0.5;entryDx=0;entryDy=0;endSize=12;endArrow=block;endFill=0;dashed=1;edgeStyle=orthogonalEdgeStyle;" edge="1" parent="1" source="Vv-Q8fSaXxROo0xmz6hG-39" target="Vv-Q8fSaXxROo0xmz6hG-33">
          <mxGeometry relative="1" as="geometry" />
        </mxCell>
        <mxCell id="Vv-Q8fSaXxROo0xmz6hG-42" value="PersistenceException" style="swimlane;fontStyle=1;align=center;verticalAlign=top;childLayout=stackLayout;horizontal=1;startSize=26;horizontalStack=0;resizeParent=1;resizeParentMax=0;resizeLast=0;collapsible=1;marginBottom=0;whiteSpace=wrap;html=1;" collapsed="1" vertex="1" parent="1">
          <mxGeometry x="1043.25" y="1060" width="179" height="30" as="geometry">
            <mxRectangle x="441.5" y="880" width="160" height="34" as="alternateBounds" />
          </mxGeometry>
        </mxCell>
        <mxCell id="Vv-Q8fSaXxROo0xmz6hG-43" value="" style="line;strokeWidth=1;fillColor=none;align=left;verticalAlign=middle;spacingTop=-1;spacingLeft=3;spacingRight=3;rotatable=0;labelPosition=right;points=[];portConstraint=eastwest;strokeColor=inherit;" vertex="1" parent="Vv-Q8fSaXxROo0xmz6hG-42">
          <mxGeometry y="26" width="160" height="8" as="geometry" />
        </mxCell>
        <mxCell id="Vv-Q8fSaXxROo0xmz6hG-44" style="edgeStyle=orthogonalEdgeStyle;rounded=0;orthogonalLoop=1;jettySize=auto;html=1;entryX=0;entryY=0.5;entryDx=0;entryDy=0;endArrow=open;endFill=0;dashed=1;endSize=12;startSize=12;" edge="1" parent="1" source="Vv-Q8fSaXxROo0xmz6hG-45" target="Vv-Q8fSaXxROo0xmz6hG-23">
          <mxGeometry relative="1" as="geometry">
            <mxPoint x="130" y="903" as="targetPoint" />
          </mxGeometry>
        </mxCell>
        <mxCell id="EOqGSP_8bO8Ac2Hg80x--1" style="edgeStyle=orthogonalEdgeStyle;rounded=0;orthogonalLoop=1;jettySize=auto;html=1;entryX=0;entryY=0.5;entryDx=0;entryDy=0;endSize=12;startSize=12;endArrow=open;endFill=0;dashed=1;" edge="1" parent="1" source="Vv-Q8fSaXxROo0xmz6hG-45" target="Vv-Q8fSaXxROo0xmz6hG-62">
          <mxGeometry relative="1" as="geometry">
            <mxPoint x="-70" y="680" as="targetPoint" />
          </mxGeometry>
        </mxCell>
        <mxCell id="Vv-Q8fSaXxROo0xmz6hG-45" value="KitchenView" style="swimlane;fontStyle=1;align=center;verticalAlign=top;childLayout=stackLayout;horizontal=1;startSize=26;horizontalStack=0;resizeParent=1;resizeParentMax=0;resizeLast=0;collapsible=1;marginBottom=0;whiteSpace=wrap;html=1;" vertex="1" parent="1">
          <mxGeometry x="-280" y="890" width="220" height="34" as="geometry" />
        </mxCell>
        <mxCell id="Vv-Q8fSaXxROo0xmz6hG-46" value="" style="line;strokeWidth=1;fillColor=none;align=left;verticalAlign=middle;spacingTop=-1;spacingLeft=3;spacingRight=3;rotatable=0;labelPosition=right;points=[];portConstraint=eastwest;strokeColor=inherit;" vertex="1" parent="Vv-Q8fSaXxROo0xmz6hG-45">
          <mxGeometry y="26" width="220" height="8" as="geometry" />
        </mxCell>
        <mxCell id="Vv-Q8fSaXxROo0xmz6hG-51" value="&lt;b&gt;Kitchen&lt;/b&gt;&lt;b&gt;Services&lt;/b&gt;" style="swimlane;fontStyle=1;align=center;verticalAlign=top;childLayout=stackLayout;horizontal=1;startSize=26;horizontalStack=0;resizeParent=1;resizeParentMax=0;resizeLast=0;collapsible=1;marginBottom=0;whiteSpace=wrap;html=1;" vertex="1" parent="1">
          <mxGeometry x="162" y="720" width="251" height="34" as="geometry">
            <mxRectangle x="170" y="720" width="140" height="30" as="alternateBounds" />
          </mxGeometry>
        </mxCell>
        <mxCell id="Vv-Q8fSaXxROo0xmz6hG-52" value="" style="line;strokeWidth=1;fillColor=none;align=left;verticalAlign=middle;spacingTop=-1;spacingLeft=3;spacingRight=3;rotatable=0;labelPosition=right;points=[];portConstraint=eastwest;strokeColor=inherit;" vertex="1" parent="Vv-Q8fSaXxROo0xmz6hG-51">
          <mxGeometry y="26" width="251" height="8" as="geometry" />
        </mxCell>
        <mxCell id="Vv-Q8fSaXxROo0xmz6hG-66" style="edgeStyle=orthogonalEdgeStyle;rounded=0;orthogonalLoop=1;jettySize=auto;html=1;entryX=0;entryY=0.5;entryDx=0;entryDy=0;endArrow=open;endFill=0;dashed=1;endSize=12;startSize=12;" edge="1" parent="1" source="Vv-Q8fSaXxROo0xmz6hG-62" target="gB5Y1k0HyoQZD1Wtt7Dn-4">
          <mxGeometry relative="1" as="geometry" />
        </mxCell>
        <mxCell id="Vv-Q8fSaXxROo0xmz6hG-67" style="edgeStyle=orthogonalEdgeStyle;rounded=0;orthogonalLoop=1;jettySize=auto;html=1;entryX=0;entryY=0.5;entryDx=0;entryDy=0;endArrow=open;endFill=0;dashed=1;endSize=12;startSize=12;" edge="1" parent="1" source="Vv-Q8fSaXxROo0xmz6hG-62" target="Vv-Q8fSaXxROo0xmz6hG-23">
          <mxGeometry relative="1" as="geometry">
            <mxPoint x="70" y="900" as="targetPoint" />
          </mxGeometry>
        </mxCell>
        <mxCell id="Vv-Q8fSaXxROo0xmz6hG-62" value="ReportFacaSingController" style="swimlane;fontStyle=1;align=center;verticalAlign=top;childLayout=stackLayout;horizontal=1;startSize=26;horizontalStack=0;resizeParent=1;resizeParentMax=0;resizeLast=0;collapsible=1;marginBottom=0;whiteSpace=wrap;html=1;fillColor=#f8cecc;strokeColor=#b85450;strokeWidth=3;" vertex="1" parent="1">
          <mxGeometry x="50" y="590" width="160" height="80" as="geometry">
            <mxRectangle x="50" y="590" width="140" height="30" as="alternateBounds" />
          </mxGeometry>
        </mxCell>
        <mxCell id="Vv-Q8fSaXxROo0xmz6hG-64" value="" style="line;strokeWidth=1;fillColor=none;align=left;verticalAlign=middle;spacingTop=-1;spacingLeft=3;spacingRight=3;rotatable=0;labelPosition=right;points=[];portConstraint=eastwest;strokeColor=inherit;" vertex="1" parent="Vv-Q8fSaXxROo0xmz6hG-62">
          <mxGeometry y="26" width="160" height="8" as="geometry" />
        </mxCell>
        <mxCell id="Vv-Q8fSaXxROo0xmz6hG-65" value="+ report()&lt;div&gt;+ get_instance()&lt;/div&gt;" style="text;strokeColor=none;fillColor=none;align=left;verticalAlign=top;spacingLeft=4;spacingRight=4;overflow=hidden;rotatable=0;points=[[0,0.5],[1,0.5]];portConstraint=eastwest;whiteSpace=wrap;html=1;" vertex="1" parent="Vv-Q8fSaXxROo0xmz6hG-62">
          <mxGeometry y="34" width="160" height="46" as="geometry" />
        </mxCell>
        <mxCell id="X-29sa1S6aLxrIAXwsSO-30" style="edgeStyle=orthogonalEdgeStyle;rounded=0;orthogonalLoop=1;jettySize=auto;html=1;endArrow=none;endFill=0;dashed=1;endSize=12;startSize=12;startArrow=open;startFill=0;" edge="1" parent="1" source="X-29sa1S6aLxrIAXwsSO-5" target="X-29sa1S6aLxrIAXwsSO-26">
          <mxGeometry relative="1" as="geometry" />
        </mxCell>
        <mxCell id="X-29sa1S6aLxrIAXwsSO-31" style="edgeStyle=orthogonalEdgeStyle;rounded=0;orthogonalLoop=1;jettySize=auto;html=1;entryX=0;entryY=0.5;entryDx=0;entryDy=0;endArrow=none;endFill=0;dashed=1;endSize=12;startSize=12;startArrow=open;startFill=0;" edge="1" parent="1" source="X-29sa1S6aLxrIAXwsSO-5" target="X-29sa1S6aLxrIAXwsSO-28">
          <mxGeometry relative="1" as="geometry" />
        </mxCell>
        <mxCell id="X-29sa1S6aLxrIAXwsSO-5" value="&lt;div&gt;&lt;span style=&quot;font-weight: normal;&quot;&gt;&lt;i&gt;&amp;lt;&amp;lt;interface&amp;gt;&amp;gt;&lt;/i&gt;&lt;/span&gt;&lt;/div&gt;ISupplierDAO" style="swimlane;fontStyle=1;align=center;verticalAlign=top;childLayout=stackLayout;horizontal=1;startSize=40;horizontalStack=0;resizeParent=1;resizeParentMax=0;resizeLast=0;collapsible=1;marginBottom=0;whiteSpace=wrap;html=1;" vertex="1" parent="1">
          <mxGeometry x="1920" y="309" width="200" height="114" as="geometry">
            <mxRectangle x="1920" y="300" width="110" height="40" as="alternateBounds" />
          </mxGeometry>
        </mxCell>
        <mxCell id="X-29sa1S6aLxrIAXwsSO-7" value="" style="line;strokeWidth=1;fillColor=none;align=left;verticalAlign=middle;spacingTop=-1;spacingLeft=3;spacingRight=3;rotatable=0;labelPosition=right;points=[];portConstraint=eastwest;strokeColor=inherit;" vertex="1" parent="X-29sa1S6aLxrIAXwsSO-5">
          <mxGeometry y="40" width="200" height="8" as="geometry" />
        </mxCell>
        <mxCell id="X-29sa1S6aLxrIAXwsSO-8" value="+ insert(supplier): boolean&lt;div&gt;+ delete(username): boolean&lt;/div&gt;&lt;div&gt;+ findByPK(username): string[]&lt;/div&gt;&lt;div&gt;+ findAll(): string[][]&lt;/div&gt;" style="text;strokeColor=none;fillColor=none;align=left;verticalAlign=top;spacingLeft=4;spacingRight=4;overflow=hidden;rotatable=0;points=[[0,0.5],[1,0.5]];portConstraint=eastwest;whiteSpace=wrap;html=1;" vertex="1" parent="X-29sa1S6aLxrIAXwsSO-5">
          <mxGeometry y="48" width="200" height="66" as="geometry" />
        </mxCell>
        <mxCell id="X-29sa1S6aLxrIAXwsSO-36" style="edgeStyle=orthogonalEdgeStyle;rounded=0;orthogonalLoop=1;jettySize=auto;html=1;entryX=0;entryY=0.5;entryDx=0;entryDy=0;endArrow=none;endFill=0;endSize=12;startSize=12;startArrow=open;startFill=0;dashed=1;" edge="1" parent="1" source="-7UsEqaNCW86ICpzcuBY-1" target="-7UsEqaNCW86ICpzcuBY-6">
          <mxGeometry relative="1" as="geometry" />
        </mxCell>
        <mxCell id="X-29sa1S6aLxrIAXwsSO-37" style="edgeStyle=orthogonalEdgeStyle;rounded=0;orthogonalLoop=1;jettySize=auto;html=1;entryX=0;entryY=0.5;entryDx=0;entryDy=0;endArrow=none;endFill=0;endSize=12;startSize=12;startArrow=open;startFill=0;dashed=1;" edge="1" parent="1" source="-7UsEqaNCW86ICpzcuBY-1" target="-7UsEqaNCW86ICpzcuBY-4">
          <mxGeometry relative="1" as="geometry">
            <mxPoint x="2260" y="940" as="targetPoint" />
          </mxGeometry>
        </mxCell>
        <mxCell id="-7UsEqaNCW86ICpzcuBY-1" value="&lt;div&gt;&lt;span style=&quot;font-weight: normal;&quot;&gt;&lt;i&gt;&amp;lt;&amp;lt;interface&amp;gt;&amp;gt;&lt;/i&gt;&lt;/span&gt;&lt;/div&gt;IKitchenDAO" style="swimlane;fontStyle=1;align=center;verticalAlign=top;childLayout=stackLayout;horizontal=1;startSize=40;horizontalStack=0;resizeParent=1;resizeParentMax=0;resizeLast=0;collapsible=1;marginBottom=0;whiteSpace=wrap;html=1;" vertex="1" parent="1">
          <mxGeometry x="1920" y="840" width="200" height="114" as="geometry">
            <mxRectangle x="1960" y="840" width="110" height="40" as="alternateBounds" />
          </mxGeometry>
        </mxCell>
        <mxCell id="-7UsEqaNCW86ICpzcuBY-2" value="" style="line;strokeWidth=1;fillColor=none;align=left;verticalAlign=middle;spacingTop=-1;spacingLeft=3;spacingRight=3;rotatable=0;labelPosition=right;points=[];portConstraint=eastwest;strokeColor=inherit;" vertex="1" parent="-7UsEqaNCW86ICpzcuBY-1">
          <mxGeometry y="40" width="200" height="8" as="geometry" />
        </mxCell>
        <mxCell id="-7UsEqaNCW86ICpzcuBY-3" value="+ insert(kitchen): boolean&lt;div&gt;+ delete(username): boolean&lt;/div&gt;&lt;div&gt;+ findByPK(username): string[]&lt;/div&gt;&lt;div&gt;+ findAll(): string[][]&lt;/div&gt;" style="text;strokeColor=none;fillColor=none;align=left;verticalAlign=top;spacingLeft=4;spacingRight=4;overflow=hidden;rotatable=0;points=[[0,0.5],[1,0.5]];portConstraint=eastwest;whiteSpace=wrap;html=1;" vertex="1" parent="-7UsEqaNCW86ICpzcuBY-1">
          <mxGeometry y="48" width="200" height="66" as="geometry" />
        </mxCell>
        <mxCell id="WAYBFTO2BFZ6zde1miuG-2" style="edgeStyle=orthogonalEdgeStyle;rounded=0;orthogonalLoop=1;jettySize=auto;html=1;exitX=0.5;exitY=1;exitDx=0;exitDy=0;entryX=0.5;entryY=0;entryDx=0;entryDy=0;endArrow=open;endFill=0;startArrow=none;startFill=0;endSize=12;startSize=12;" edge="1" parent="1" source="X-29sa1S6aLxrIAXwsSO-16" target="Vv-Q8fSaXxROo0xmz6hG-33">
          <mxGeometry relative="1" as="geometry" />
        </mxCell>
        <mxCell id="X-29sa1S6aLxrIAXwsSO-16" value="&lt;div&gt;&lt;span style=&quot;font-weight: normal;&quot;&gt;&lt;i&gt;&amp;lt;&amp;lt;interface&amp;gt;&amp;gt;&lt;/i&gt;&lt;/span&gt;&lt;/div&gt;IRepositoryFactory" style="swimlane;fontStyle=1;align=center;verticalAlign=top;childLayout=stackLayout;horizontal=1;startSize=40;horizontalStack=0;resizeParent=1;resizeParentMax=0;resizeLast=0;collapsible=1;marginBottom=0;whiteSpace=wrap;html=1;fillColor=#fff2cc;strokeColor=#d6b656;" vertex="1" parent="1">
          <mxGeometry x="972.75" y="650" width="320" height="94" as="geometry">
            <mxRectangle x="972.75" y="650" width="140" height="40" as="alternateBounds" />
          </mxGeometry>
        </mxCell>
        <mxCell id="X-29sa1S6aLxrIAXwsSO-18" value="" style="line;strokeWidth=1;fillColor=none;align=left;verticalAlign=middle;spacingTop=-1;spacingLeft=3;spacingRight=3;rotatable=0;labelPosition=right;points=[];portConstraint=eastwest;strokeColor=inherit;" vertex="1" parent="X-29sa1S6aLxrIAXwsSO-16">
          <mxGeometry y="40" width="320" height="8" as="geometry" />
        </mxCell>
        <mxCell id="X-29sa1S6aLxrIAXwsSO-19" value="+ getSupplierRepository(): ISupplierRepository&lt;div&gt;+ getKitchenRepository():&amp;nbsp;&lt;span style=&quot;background-color: transparent; color: light-dark(rgb(0, 0, 0), rgb(255, 255, 255));&quot;&gt;IKitchenRepository&lt;/span&gt;&lt;/div&gt;" style="text;strokeColor=none;fillColor=none;align=left;verticalAlign=top;spacingLeft=4;spacingRight=4;overflow=hidden;rotatable=0;points=[[0,0.5],[1,0.5]];portConstraint=eastwest;whiteSpace=wrap;html=1;" vertex="1" parent="X-29sa1S6aLxrIAXwsSO-16">
          <mxGeometry y="48" width="320" height="46" as="geometry" />
        </mxCell>
        <mxCell id="X-29sa1S6aLxrIAXwsSO-20" value="&lt;div&gt;&lt;span style=&quot;font-weight: normal;&quot;&gt;&lt;i&gt;&amp;lt;&amp;lt;interface&amp;gt;&amp;gt;&lt;/i&gt;&lt;/span&gt;&lt;/div&gt;IDAOFactory" style="swimlane;fontStyle=1;align=center;verticalAlign=top;childLayout=stackLayout;horizontal=1;startSize=44;horizontalStack=0;resizeParent=1;resizeParentMax=0;resizeLast=0;collapsible=1;marginBottom=0;whiteSpace=wrap;html=1;fillColor=#fff2cc;strokeColor=#d6b656;" vertex="1" parent="1">
          <mxGeometry x="1860" y="560" width="320" height="98" as="geometry">
            <mxRectangle x="1860" y="560" width="110" height="44" as="alternateBounds" />
          </mxGeometry>
        </mxCell>
        <mxCell id="X-29sa1S6aLxrIAXwsSO-21" value="" style="line;strokeWidth=1;fillColor=none;align=left;verticalAlign=middle;spacingTop=-1;spacingLeft=3;spacingRight=3;rotatable=0;labelPosition=right;points=[];portConstraint=eastwest;strokeColor=inherit;" vertex="1" parent="X-29sa1S6aLxrIAXwsSO-20">
          <mxGeometry y="44" width="320" height="8" as="geometry" />
        </mxCell>
        <mxCell id="X-29sa1S6aLxrIAXwsSO-22" value="+ getSupplierDAO(): ISupplierDAO&lt;div&gt;+ getKitchenDAO():&amp;nbsp;&lt;span style=&quot;background-color: transparent; color: light-dark(rgb(0, 0, 0), rgb(255, 255, 255));&quot;&gt;IKitchenDAO&lt;/span&gt;&lt;/div&gt;" style="text;strokeColor=none;fillColor=none;align=left;verticalAlign=top;spacingLeft=4;spacingRight=4;overflow=hidden;rotatable=0;points=[[0,0.5],[1,0.5]];portConstraint=eastwest;whiteSpace=wrap;html=1;" vertex="1" parent="X-29sa1S6aLxrIAXwsSO-20">
          <mxGeometry y="52" width="320" height="46" as="geometry" />
        </mxCell>
        <mxCell id="X-29sa1S6aLxrIAXwsSO-23" style="edgeStyle=orthogonalEdgeStyle;rounded=0;orthogonalLoop=1;jettySize=auto;html=1;entryX=0;entryY=0.5;entryDx=0;entryDy=0;endArrow=open;endFill=0;endSize=12;dashed=1;" edge="1" parent="1" source="gB5Y1k0HyoQZD1Wtt7Dn-3" target="X-29sa1S6aLxrIAXwsSO-19">
          <mxGeometry relative="1" as="geometry" />
        </mxCell>
        <mxCell id="X-29sa1S6aLxrIAXwsSO-26" value="ArraySupplierDAO" style="swimlane;fontStyle=1;align=center;verticalAlign=top;childLayout=stackLayout;horizontal=1;startSize=26;horizontalStack=0;resizeParent=1;resizeParentMax=0;resizeLast=0;collapsible=1;marginBottom=0;whiteSpace=wrap;html=1;" collapsed="1" vertex="1" parent="1">
          <mxGeometry x="2340" y="276" width="190" height="30" as="geometry">
            <mxRectangle x="1220" y="330" width="220" height="50" as="alternateBounds" />
          </mxGeometry>
        </mxCell>
        <mxCell id="X-29sa1S6aLxrIAXwsSO-27" value="" style="line;strokeWidth=1;fillColor=none;align=left;verticalAlign=middle;spacingTop=-1;spacingLeft=3;spacingRight=3;rotatable=0;labelPosition=right;points=[];portConstraint=eastwest;strokeColor=inherit;" vertex="1" parent="X-29sa1S6aLxrIAXwsSO-26">
          <mxGeometry y="26" width="220" height="24" as="geometry" />
        </mxCell>
        <mxCell id="X-29sa1S6aLxrIAXwsSO-28" value="SQLiteSupplierDAO" style="swimlane;fontStyle=1;align=center;verticalAlign=top;childLayout=stackLayout;horizontal=1;startSize=26;horizontalStack=0;resizeParent=1;resizeParentMax=0;resizeLast=0;collapsible=1;marginBottom=0;whiteSpace=wrap;html=1;" collapsed="1" vertex="1" parent="1">
          <mxGeometry x="2350" y="414" width="210" height="30" as="geometry">
            <mxRectangle x="744.5" y="763" width="190" height="50" as="alternateBounds" />
          </mxGeometry>
        </mxCell>
        <mxCell id="X-29sa1S6aLxrIAXwsSO-29" value="" style="line;strokeWidth=1;fillColor=none;align=left;verticalAlign=middle;spacingTop=-1;spacingLeft=3;spacingRight=3;rotatable=0;labelPosition=right;points=[];portConstraint=eastwest;strokeColor=inherit;" vertex="1" parent="X-29sa1S6aLxrIAXwsSO-28">
          <mxGeometry y="26" width="190" height="24" as="geometry" />
        </mxCell>
        <mxCell id="-7UsEqaNCW86ICpzcuBY-4" value="ArrayKitchenDAO" style="swimlane;fontStyle=1;align=center;verticalAlign=top;childLayout=stackLayout;horizontal=1;startSize=26;horizontalStack=0;resizeParent=1;resizeParentMax=0;resizeLast=0;collapsible=1;marginBottom=0;whiteSpace=wrap;html=1;" collapsed="1" vertex="1" parent="1">
          <mxGeometry x="2390" y="927" width="190" height="30" as="geometry">
            <mxRectangle x="1220" y="330" width="220" height="50" as="alternateBounds" />
          </mxGeometry>
        </mxCell>
        <mxCell id="-7UsEqaNCW86ICpzcuBY-5" value="" style="line;strokeWidth=1;fillColor=none;align=left;verticalAlign=middle;spacingTop=-1;spacingLeft=3;spacingRight=3;rotatable=0;labelPosition=right;points=[];portConstraint=eastwest;strokeColor=inherit;" vertex="1" parent="-7UsEqaNCW86ICpzcuBY-4">
          <mxGeometry y="26" width="220" height="24" as="geometry" />
        </mxCell>
        <mxCell id="-7UsEqaNCW86ICpzcuBY-6" value="SQLiteKitchenDAO" style="swimlane;fontStyle=1;align=center;verticalAlign=top;childLayout=stackLayout;horizontal=1;startSize=26;horizontalStack=0;resizeParent=1;resizeParentMax=0;resizeLast=0;collapsible=1;marginBottom=0;whiteSpace=wrap;html=1;" collapsed="1" vertex="1" parent="1">
          <mxGeometry x="2390" y="840" width="210" height="30" as="geometry">
            <mxRectangle x="744.5" y="763" width="190" height="50" as="alternateBounds" />
          </mxGeometry>
        </mxCell>
        <mxCell id="-7UsEqaNCW86ICpzcuBY-7" value="" style="line;strokeWidth=1;fillColor=none;align=left;verticalAlign=middle;spacingTop=-1;spacingLeft=3;spacingRight=3;rotatable=0;labelPosition=right;points=[];portConstraint=eastwest;strokeColor=inherit;" vertex="1" parent="-7UsEqaNCW86ICpzcuBY-6">
          <mxGeometry y="26" width="190" height="24" as="geometry" />
        </mxCell>
        <mxCell id="X-29sa1S6aLxrIAXwsSO-32" style="edgeStyle=orthogonalEdgeStyle;rounded=0;orthogonalLoop=1;jettySize=auto;html=1;entryX=0.5;entryY=1;entryDx=0;entryDy=0;endSize=12;endArrow=open;endFill=0;exitX=0.5;exitY=0;exitDx=0;exitDy=0;" edge="1" parent="1" source="X-29sa1S6aLxrIAXwsSO-20" target="X-29sa1S6aLxrIAXwsSO-5">
          <mxGeometry relative="1" as="geometry">
            <mxPoint x="1900" y="470" as="targetPoint" />
          </mxGeometry>
        </mxCell>
        <mxCell id="X-29sa1S6aLxrIAXwsSO-33" style="edgeStyle=orthogonalEdgeStyle;rounded=0;orthogonalLoop=1;jettySize=auto;html=1;entryX=0.5;entryY=0;entryDx=0;entryDy=0;endSize=12;endArrow=open;endFill=0;" edge="1" parent="1" source="X-29sa1S6aLxrIAXwsSO-20" target="-7UsEqaNCW86ICpzcuBY-1">
          <mxGeometry relative="1" as="geometry" />
        </mxCell>
        <mxCell id="X-29sa1S6aLxrIAXwsSO-47" style="edgeStyle=orthogonalEdgeStyle;rounded=0;orthogonalLoop=1;jettySize=auto;html=1;entryX=1;entryY=0.25;entryDx=0;entryDy=0;endArrow=open;endFill=0;dashed=1;endSize=12;startSize=12;" edge="1" parent="1" source="X-29sa1S6aLxrIAXwsSO-43" target="X-29sa1S6aLxrIAXwsSO-16">
          <mxGeometry relative="1" as="geometry" />
        </mxCell>
        <mxCell id="X-29sa1S6aLxrIAXwsSO-43" value="InMemoryRepositoryFactory" style="swimlane;fontStyle=1;align=center;verticalAlign=top;childLayout=stackLayout;horizontal=1;startSize=26;horizontalStack=0;resizeParent=1;resizeParentMax=0;resizeLast=0;collapsible=1;marginBottom=0;whiteSpace=wrap;html=1;fillColor=#fff2cc;strokeColor=#d6b656;strokeWidth=3;" collapsed="1" vertex="1" parent="1">
          <mxGeometry x="1410" y="628" width="200" height="30" as="geometry">
            <mxRectangle x="1410" y="664" width="160" height="34" as="alternateBounds" />
          </mxGeometry>
        </mxCell>
        <mxCell id="X-29sa1S6aLxrIAXwsSO-45" value="" style="line;strokeWidth=1;fillColor=none;align=left;verticalAlign=middle;spacingTop=-1;spacingLeft=3;spacingRight=3;rotatable=0;labelPosition=right;points=[];portConstraint=eastwest;strokeColor=inherit;" vertex="1" parent="X-29sa1S6aLxrIAXwsSO-43">
          <mxGeometry y="26" width="160" height="8" as="geometry" />
        </mxCell>
        <mxCell id="X-29sa1S6aLxrIAXwsSO-50" style="edgeStyle=orthogonalEdgeStyle;rounded=0;orthogonalLoop=1;jettySize=auto;html=1;entryX=1;entryY=0.25;entryDx=0;entryDy=0;endArrow=open;endFill=0;dashed=1;endSize=12;startSize=12;" edge="1" parent="1" source="X-29sa1S6aLxrIAXwsSO-48" target="X-29sa1S6aLxrIAXwsSO-16">
          <mxGeometry relative="1" as="geometry" />
        </mxCell>
        <mxCell id="X-29sa1S6aLxrIAXwsSO-48" value="SQLRepositoryFactory" style="swimlane;fontStyle=1;align=center;verticalAlign=top;childLayout=stackLayout;horizontal=1;startSize=26;horizontalStack=0;resizeParent=1;resizeParentMax=0;resizeLast=0;collapsible=1;marginBottom=0;whiteSpace=wrap;html=1;fillColor=#fff2cc;strokeColor=#d6b656;strokeWidth=3;" collapsed="1" vertex="1" parent="1">
          <mxGeometry x="1410" y="682" width="200" height="30" as="geometry">
            <mxRectangle x="1410" y="664" width="160" height="34" as="alternateBounds" />
          </mxGeometry>
        </mxCell>
        <mxCell id="X-29sa1S6aLxrIAXwsSO-49" value="" style="line;strokeWidth=1;fillColor=none;align=left;verticalAlign=middle;spacingTop=-1;spacingLeft=3;spacingRight=3;rotatable=0;labelPosition=right;points=[];portConstraint=eastwest;strokeColor=inherit;" vertex="1" parent="X-29sa1S6aLxrIAXwsSO-48">
          <mxGeometry y="26" width="160" height="8" as="geometry" />
        </mxCell>
        <mxCell id="X-29sa1S6aLxrIAXwsSO-55" style="edgeStyle=orthogonalEdgeStyle;rounded=0;orthogonalLoop=1;jettySize=auto;html=1;entryX=1;entryY=0.5;entryDx=0;entryDy=0;endArrow=open;endFill=0;endSize=12;startSize=12;dashed=1;" edge="1" parent="1" source="X-29sa1S6aLxrIAXwsSO-51" target="X-29sa1S6aLxrIAXwsSO-20">
          <mxGeometry relative="1" as="geometry" />
        </mxCell>
        <mxCell id="X-29sa1S6aLxrIAXwsSO-51" value="ArrayDAOFactory" style="swimlane;fontStyle=1;align=center;verticalAlign=top;childLayout=stackLayout;horizontal=1;startSize=26;horizontalStack=0;resizeParent=1;resizeParentMax=0;resizeLast=0;collapsible=1;marginBottom=0;whiteSpace=wrap;html=1;fillColor=#fff2cc;strokeColor=#d6b656;strokeWidth=3;" collapsed="1" vertex="1" parent="1">
          <mxGeometry x="2290" y="566" width="200" height="30" as="geometry">
            <mxRectangle x="1410" y="664" width="160" height="34" as="alternateBounds" />
          </mxGeometry>
        </mxCell>
        <mxCell id="X-29sa1S6aLxrIAXwsSO-52" value="" style="line;strokeWidth=1;fillColor=none;align=left;verticalAlign=middle;spacingTop=-1;spacingLeft=3;spacingRight=3;rotatable=0;labelPosition=right;points=[];portConstraint=eastwest;strokeColor=inherit;" vertex="1" parent="X-29sa1S6aLxrIAXwsSO-51">
          <mxGeometry y="26" width="160" height="8" as="geometry" />
        </mxCell>
        <mxCell id="X-29sa1S6aLxrIAXwsSO-56" style="edgeStyle=orthogonalEdgeStyle;rounded=0;orthogonalLoop=1;jettySize=auto;html=1;entryX=1;entryY=0.5;entryDx=0;entryDy=0;endArrow=open;endFill=0;endSize=12;startSize=12;dashed=1;" edge="1" parent="1" source="X-29sa1S6aLxrIAXwsSO-53" target="X-29sa1S6aLxrIAXwsSO-20">
          <mxGeometry relative="1" as="geometry" />
        </mxCell>
        <mxCell id="X-29sa1S6aLxrIAXwsSO-53" value="SQLIteDAOFactory" style="swimlane;fontStyle=1;align=center;verticalAlign=top;childLayout=stackLayout;horizontal=1;startSize=26;horizontalStack=0;resizeParent=1;resizeParentMax=0;resizeLast=0;collapsible=1;marginBottom=0;whiteSpace=wrap;html=1;fillColor=#fff2cc;strokeColor=#d6b656;strokeWidth=3;" collapsed="1" vertex="1" parent="1">
          <mxGeometry x="2290" y="620" width="200" height="30" as="geometry">
            <mxRectangle x="1410" y="664" width="160" height="34" as="alternateBounds" />
          </mxGeometry>
        </mxCell>
        <mxCell id="X-29sa1S6aLxrIAXwsSO-54" value="" style="line;strokeWidth=1;fillColor=none;align=left;verticalAlign=middle;spacingTop=-1;spacingLeft=3;spacingRight=3;rotatable=0;labelPosition=right;points=[];portConstraint=eastwest;strokeColor=inherit;" vertex="1" parent="X-29sa1S6aLxrIAXwsSO-53">
          <mxGeometry y="26" width="160" height="8" as="geometry" />
        </mxCell>
        <mxCell id="8NQJO7PPrrOuCC73Um8U-9" value="&lt;i style=&quot;font-weight: normal;&quot;&gt;&amp;lt;&amp;lt;interface&amp;gt;&amp;gt;&lt;/i&gt;&lt;br&gt;LoggerAdapter" style="swimlane;fontStyle=1;align=center;verticalAlign=top;childLayout=stackLayout;horizontal=1;startSize=39;horizontalStack=0;resizeParent=1;resizeParentMax=0;resizeLast=0;collapsible=1;marginBottom=0;whiteSpace=wrap;html=1;fillColor=#e1d5e7;strokeColor=#9673a6;" vertex="1" parent="1">
          <mxGeometry x="840" y="340" width="160" height="120" as="geometry">
            <mxRectangle x="150" y="1230" width="110" height="40" as="alternateBounds" />
          </mxGeometry>
        </mxCell>
        <mxCell id="8NQJO7PPrrOuCC73Um8U-10" value="" style="line;strokeWidth=1;fillColor=none;align=left;verticalAlign=middle;spacingTop=-1;spacingLeft=3;spacingRight=3;rotatable=0;labelPosition=right;points=[];portConstraint=eastwest;strokeColor=inherit;" vertex="1" parent="8NQJO7PPrrOuCC73Um8U-9">
          <mxGeometry y="39" width="160" height="8" as="geometry" />
        </mxCell>
        <mxCell id="8NQJO7PPrrOuCC73Um8U-11" value="+ log_info(message): void&lt;div&gt;+ log_error&lt;span style=&quot;background-color: transparent; color: light-dark(rgb(0, 0, 0), rgb(255, 255, 255));&quot;&gt;(message): void&lt;/span&gt;&lt;/div&gt;&lt;div&gt;+ log_debug&lt;span style=&quot;background-color: transparent; color: light-dark(rgb(0, 0, 0), rgb(255, 255, 255));&quot;&gt;(message): void&lt;/span&gt;&lt;/div&gt;" style="text;strokeColor=none;fillColor=none;align=left;verticalAlign=top;spacingLeft=4;spacingRight=4;overflow=hidden;rotatable=0;points=[[0,0.5],[1,0.5]];portConstraint=eastwest;whiteSpace=wrap;html=1;" vertex="1" parent="8NQJO7PPrrOuCC73Um8U-9">
          <mxGeometry y="47" width="160" height="73" as="geometry" />
        </mxCell>
        <mxCell id="8NQJO7PPrrOuCC73Um8U-12" style="rounded=0;orthogonalLoop=1;jettySize=auto;html=1;entryX=0.5;entryY=0;entryDx=0;entryDy=0;endArrow=block;endFill=0;endSize=12;dashed=1;edgeStyle=orthogonalEdgeStyle;" edge="1" parent="1" source="8NQJO7PPrrOuCC73Um8U-13" target="8NQJO7PPrrOuCC73Um8U-9">
          <mxGeometry relative="1" as="geometry">
            <mxPoint x="950" y="164" as="targetPoint" />
          </mxGeometry>
        </mxCell>
        <mxCell id="8NQJO7PPrrOuCC73Um8U-13" value="&lt;div&gt;&lt;span style=&quot;background-color: transparent; color: light-dark(rgb(0, 0, 0), rgb(255, 255, 255));&quot;&gt;PythonLoggerAdapter&lt;/span&gt;&lt;/div&gt;" style="swimlane;fontStyle=1;align=center;verticalAlign=top;childLayout=stackLayout;horizontal=1;startSize=30;horizontalStack=0;resizeParent=1;resizeParentMax=0;resizeLast=0;collapsible=1;marginBottom=0;whiteSpace=wrap;html=1;fillColor=#dae8fc;strokeColor=#6c8ebf;strokeWidth=3;" collapsed="1" vertex="1" parent="1">
          <mxGeometry x="840" y="226" width="160" height="30" as="geometry">
            <mxRectangle x="460" y="1230" width="160" height="111" as="alternateBounds" />
          </mxGeometry>
        </mxCell>
        <mxCell id="8NQJO7PPrrOuCC73Um8U-14" value="" style="line;strokeWidth=1;fillColor=none;align=left;verticalAlign=middle;spacingTop=-1;spacingLeft=3;spacingRight=3;rotatable=0;labelPosition=right;points=[];portConstraint=eastwest;strokeColor=inherit;" vertex="1" parent="8NQJO7PPrrOuCC73Um8U-13">
          <mxGeometry y="30" width="160" height="8" as="geometry" />
        </mxCell>
        <mxCell id="8NQJO7PPrrOuCC73Um8U-15" value="+ log_info(message): void&lt;div&gt;+ log_error&lt;span style=&quot;background-color: transparent; color: light-dark(rgb(0, 0, 0), rgb(255, 255, 255));&quot;&gt;(message): void&lt;/span&gt;&lt;/div&gt;&lt;div&gt;+ log_debug&lt;span style=&quot;background-color: transparent; color: light-dark(rgb(0, 0, 0), rgb(255, 255, 255));&quot;&gt;(message): void&lt;/span&gt;&lt;/div&gt;" style="text;strokeColor=none;fillColor=none;align=left;verticalAlign=top;spacingLeft=4;spacingRight=4;overflow=hidden;rotatable=0;points=[[0,0.5],[1,0.5]];portConstraint=eastwest;whiteSpace=wrap;html=1;" vertex="1" parent="8NQJO7PPrrOuCC73Um8U-13">
          <mxGeometry y="38" width="160" height="73" as="geometry" />
        </mxCell>
        <mxCell id="8NQJO7PPrrOuCC73Um8U-16" style="edgeStyle=orthogonalEdgeStyle;rounded=0;orthogonalLoop=1;jettySize=auto;html=1;entryX=1;entryY=0.25;entryDx=0;entryDy=0;endArrow=none;endFill=0;endSize=12;startArrow=block;startFill=0;startSize=12;dashed=1;" edge="1" parent="1" source="8NQJO7PPrrOuCC73Um8U-11" target="gB5Y1k0HyoQZD1Wtt7Dn-1">
          <mxGeometry relative="1" as="geometry">
            <Array as="points">
              <mxPoint x="710" y="424" />
              <mxPoint x="710" y="381" />
            </Array>
          </mxGeometry>
        </mxCell>
      </root>
    </mxGraphModel>
  </diagram>
  <diagram name="main" id="FkxjfFtEqQS6m2szcDnC">
    <mxGraphModel grid="1" page="1" gridSize="10" guides="1" tooltips="1" connect="1" arrows="1" fold="1" pageScale="1" pageWidth="1169" pageHeight="827" math="0" shadow="0">
      <root>
        <mxCell id="wxon_P1c7T2_PDzqhW2S-0" />
        <mxCell id="wxon_P1c7T2_PDzqhW2S-1" parent="wxon_P1c7T2_PDzqhW2S-0" />
        <mxCell id="wxon_P1c7T2_PDzqhW2S-2" value="" style="endArrow=none;dashed=1;html=1;dashPattern=1 3;strokeWidth=2;rounded=0;" parent="wxon_P1c7T2_PDzqhW2S-1" edge="1">
          <mxGeometry width="50" height="50" relative="1" as="geometry">
            <mxPoint x="19" y="1220" as="sourcePoint" />
            <mxPoint x="20" y="14" as="targetPoint" />
          </mxGeometry>
        </mxCell>
        <mxCell id="wxon_P1c7T2_PDzqhW2S-3" value="" style="endArrow=none;dashed=1;html=1;dashPattern=1 3;strokeWidth=2;rounded=0;" parent="wxon_P1c7T2_PDzqhW2S-1" edge="1">
          <mxGeometry width="50" height="50" relative="1" as="geometry">
            <mxPoint x="800" y="1250" as="sourcePoint" />
            <mxPoint x="800" y="40" as="targetPoint" />
          </mxGeometry>
        </mxCell>
        <mxCell id="wxon_P1c7T2_PDzqhW2S-4" value="&lt;font style=&quot;font-size: 30px;&quot;&gt;&lt;b&gt;Business&lt;/b&gt;&lt;/font&gt;" style="text;html=1;align=center;verticalAlign=middle;whiteSpace=wrap;rounded=0;" parent="wxon_P1c7T2_PDzqhW2S-1" vertex="1">
          <mxGeometry x="330" y="40" width="180" height="30" as="geometry" />
        </mxCell>
        <mxCell id="wxon_P1c7T2_PDzqhW2S-5" value="&lt;font style=&quot;font-size: 30px;&quot;&gt;&lt;b&gt;View&lt;/b&gt;&lt;/font&gt;" style="text;html=1;align=center;verticalAlign=middle;whiteSpace=wrap;rounded=0;" parent="wxon_P1c7T2_PDzqhW2S-1" vertex="1">
          <mxGeometry x="-250" y="40" width="180" height="30" as="geometry" />
        </mxCell>
        <mxCell id="wxon_P1c7T2_PDzqhW2S-6" value="&lt;font style=&quot;font-size: 30px;&quot;&gt;&lt;b&gt;Infra&lt;/b&gt;&lt;/font&gt;" style="text;html=1;align=center;verticalAlign=middle;whiteSpace=wrap;rounded=0;" parent="wxon_P1c7T2_PDzqhW2S-1" vertex="1">
          <mxGeometry x="1030" y="40" width="180" height="30" as="geometry" />
        </mxCell>
        <mxCell id="wxon_P1c7T2_PDzqhW2S-7" style="edgeStyle=orthogonalEdgeStyle;rounded=0;orthogonalLoop=1;jettySize=auto;html=1;entryX=0.5;entryY=1;entryDx=0;entryDy=0;endArrow=open;endFill=0;dashed=1;endSize=12;startSize=12;" parent="wxon_P1c7T2_PDzqhW2S-1" source="wxon_P1c7T2_PDzqhW2S-9" target="wxon_P1c7T2_PDzqhW2S-38" edge="1">
          <mxGeometry relative="1" as="geometry" />
        </mxCell>
        <mxCell id="wxon_P1c7T2_PDzqhW2S-8" style="edgeStyle=orthogonalEdgeStyle;rounded=0;orthogonalLoop=1;jettySize=auto;html=1;entryX=0;entryY=0.5;entryDx=0;entryDy=0;endArrow=open;endFill=0;dashed=1;endSize=12;startSize=12;" parent="wxon_P1c7T2_PDzqhW2S-1" source="wxon_P1c7T2_PDzqhW2S-9" target="wxon_P1c7T2_PDzqhW2S-19" edge="1">
          <mxGeometry relative="1" as="geometry">
            <mxPoint x="820" y="409.9999999999999" as="targetPoint" />
          </mxGeometry>
        </mxCell>
        <mxCell id="wxon_P1c7T2_PDzqhW2S-9" value="&lt;b&gt;SupplierController&lt;/b&gt;" style="swimlane;fontStyle=1;align=center;verticalAlign=top;childLayout=stackLayout;horizontal=1;startSize=26;horizontalStack=0;resizeParent=1;resizeParentMax=0;resizeLast=0;collapsible=1;marginBottom=0;whiteSpace=wrap;html=1;" parent="wxon_P1c7T2_PDzqhW2S-1" vertex="1">
          <mxGeometry x="179.5" y="356" width="201" height="100" as="geometry">
            <mxRectangle x="180" y="364" width="150" height="30" as="alternateBounds" />
          </mxGeometry>
        </mxCell>
        <mxCell id="wxon_P1c7T2_PDzqhW2S-10" value="- suppliers: List&amp;lt;Supplier&amp;gt;" style="text;strokeColor=none;fillColor=none;align=left;verticalAlign=top;spacingLeft=4;spacingRight=4;overflow=hidden;rotatable=0;points=[[0,0.5],[1,0.5]];portConstraint=eastwest;whiteSpace=wrap;html=1;" parent="wxon_P1c7T2_PDzqhW2S-9" vertex="1">
          <mxGeometry y="26" width="201" height="24" as="geometry" />
        </mxCell>
        <mxCell id="wxon_P1c7T2_PDzqhW2S-11" value="" style="line;strokeWidth=1;fillColor=none;align=left;verticalAlign=middle;spacingTop=-1;spacingLeft=3;spacingRight=3;rotatable=0;labelPosition=right;points=[];portConstraint=eastwest;strokeColor=inherit;" parent="wxon_P1c7T2_PDzqhW2S-9" vertex="1">
          <mxGeometry y="50" width="201" height="8" as="geometry" />
        </mxCell>
        <mxCell id="wxon_P1c7T2_PDzqhW2S-12" value="+ addSupplier(name)&lt;div&gt;+ login(username, password)&lt;/div&gt;" style="text;strokeColor=none;fillColor=none;align=left;verticalAlign=top;spacingLeft=4;spacingRight=4;overflow=hidden;rotatable=0;points=[[0,0.5],[1,0.5]];portConstraint=eastwest;whiteSpace=wrap;html=1;" parent="wxon_P1c7T2_PDzqhW2S-9" vertex="1">
          <mxGeometry y="58" width="201" height="42" as="geometry" />
        </mxCell>
        <mxCell id="wxon_P1c7T2_PDzqhW2S-13" style="edgeStyle=orthogonalEdgeStyle;rounded=0;orthogonalLoop=1;jettySize=auto;html=1;entryX=0.5;entryY=1;entryDx=0;entryDy=0;endArrow=diamond;endFill=0;endSize=12;" parent="wxon_P1c7T2_PDzqhW2S-1" source="wxon_P1c7T2_PDzqhW2S-14" target="wxon_P1c7T2_PDzqhW2S-9" edge="1">
          <mxGeometry relative="1" as="geometry">
            <mxPoint x="290" y="450" as="targetPoint" />
          </mxGeometry>
        </mxCell>
        <mxCell id="wxon_P1c7T2_PDzqhW2S-14" value="&lt;b&gt;Supplier&lt;/b&gt;" style="swimlane;fontStyle=1;align=center;verticalAlign=top;childLayout=stackLayout;horizontal=1;startSize=26;horizontalStack=0;resizeParent=1;resizeParentMax=0;resizeLast=0;collapsible=1;marginBottom=0;whiteSpace=wrap;html=1;" parent="wxon_P1c7T2_PDzqhW2S-1" vertex="1">
          <mxGeometry x="405.5" y="470" width="160" height="114" as="geometry" />
        </mxCell>
        <mxCell id="wxon_P1c7T2_PDzqhW2S-15" value="+ name&lt;div&gt;+ username&lt;/div&gt;&lt;div&gt;+ password&lt;/div&gt;" style="text;strokeColor=none;fillColor=none;align=left;verticalAlign=top;spacingLeft=4;spacingRight=4;overflow=hidden;rotatable=0;points=[[0,0.5],[1,0.5]];portConstraint=eastwest;whiteSpace=wrap;html=1;" parent="wxon_P1c7T2_PDzqhW2S-14" vertex="1">
          <mxGeometry y="26" width="160" height="54" as="geometry" />
        </mxCell>
        <mxCell id="wxon_P1c7T2_PDzqhW2S-16" value="" style="line;strokeWidth=1;fillColor=none;align=left;verticalAlign=middle;spacingTop=-1;spacingLeft=3;spacingRight=3;rotatable=0;labelPosition=right;points=[];portConstraint=eastwest;strokeColor=inherit;" parent="wxon_P1c7T2_PDzqhW2S-14" vertex="1">
          <mxGeometry y="80" width="160" height="8" as="geometry" />
        </mxCell>
        <mxCell id="wxon_P1c7T2_PDzqhW2S-17" value="+ toSring()" style="text;strokeColor=none;fillColor=none;align=left;verticalAlign=top;spacingLeft=4;spacingRight=4;overflow=hidden;rotatable=0;points=[[0,0.5],[1,0.5]];portConstraint=eastwest;whiteSpace=wrap;html=1;" parent="wxon_P1c7T2_PDzqhW2S-14" vertex="1">
          <mxGeometry y="88" width="160" height="26" as="geometry" />
        </mxCell>
        <mxCell id="wxon_P1c7T2_PDzqhW2S-18" style="edgeStyle=orthogonalEdgeStyle;rounded=0;orthogonalLoop=1;jettySize=auto;html=1;entryX=0.5;entryY=0;entryDx=0;entryDy=0;endArrow=open;endFill=0;endSize=12;dashed=1;" parent="wxon_P1c7T2_PDzqhW2S-1" source="wxon_P1c7T2_PDzqhW2S-19" target="wxon_P1c7T2_PDzqhW2S-29" edge="1">
          <mxGeometry relative="1" as="geometry" />
        </mxCell>
        <mxCell id="wxon_P1c7T2_PDzqhW2S-19" value="&lt;div&gt;&lt;span style=&quot;font-weight: normal;&quot;&gt;&lt;i&gt;&amp;lt;&amp;lt;interface&amp;gt;&amp;gt;&lt;/i&gt;&lt;/span&gt;&lt;/div&gt;&lt;b&gt;ISupplierRepository&lt;/b&gt;" style="swimlane;fontStyle=1;align=center;verticalAlign=top;childLayout=stackLayout;horizontal=1;startSize=40;horizontalStack=0;resizeParent=1;resizeParentMax=0;resizeLast=0;collapsible=1;marginBottom=0;whiteSpace=wrap;html=1;" parent="wxon_P1c7T2_PDzqhW2S-1" vertex="1">
          <mxGeometry x="860" y="330" width="185.5" height="150" as="geometry">
            <mxRectangle x="860" y="330" width="150" height="50" as="alternateBounds" />
          </mxGeometry>
        </mxCell>
        <mxCell id="wxon_P1c7T2_PDzqhW2S-20" value="" style="line;strokeWidth=1;fillColor=none;align=left;verticalAlign=middle;spacingTop=-1;spacingLeft=3;spacingRight=3;rotatable=0;labelPosition=right;points=[];portConstraint=eastwest;strokeColor=inherit;" parent="wxon_P1c7T2_PDzqhW2S-19" vertex="1">
          <mxGeometry y="40" width="185.5" height="20" as="geometry" />
        </mxCell>
        <mxCell id="wxon_P1c7T2_PDzqhW2S-21" value="+ create(supplier)&lt;div&gt;+ delete(username)&lt;/div&gt;&lt;div&gt;+ update(username, supplier)&lt;/div&gt;&lt;div&gt;+ get(username)&lt;/div&gt;&lt;div&gt;+ getAll()&lt;/div&gt;" style="text;strokeColor=none;fillColor=none;align=left;verticalAlign=top;spacingLeft=4;spacingRight=4;overflow=hidden;rotatable=0;points=[[0,0.5],[1,0.5]];portConstraint=eastwest;whiteSpace=wrap;html=1;" parent="wxon_P1c7T2_PDzqhW2S-19" vertex="1">
          <mxGeometry y="60" width="185.5" height="90" as="geometry" />
        </mxCell>
        <mxCell id="wxon_P1c7T2_PDzqhW2S-22" style="rounded=0;orthogonalLoop=1;jettySize=auto;html=1;entryX=1;entryY=0.5;entryDx=0;entryDy=0;endSize=12;endArrow=block;endFill=0;dashed=1;edgeStyle=orthogonalEdgeStyle;" parent="wxon_P1c7T2_PDzqhW2S-1" source="wxon_P1c7T2_PDzqhW2S-24" target="wxon_P1c7T2_PDzqhW2S-19" edge="1">
          <mxGeometry relative="1" as="geometry">
            <mxPoint x="968.5" y="497" as="targetPoint" />
          </mxGeometry>
        </mxCell>
        <mxCell id="wxon_P1c7T2_PDzqhW2S-23" style="edgeStyle=orthogonalEdgeStyle;rounded=0;orthogonalLoop=1;jettySize=auto;html=1;entryX=0;entryY=0.5;entryDx=0;entryDy=0;endArrow=open;endFill=0;endSize=12;startSize=12;" parent="wxon_P1c7T2_PDzqhW2S-1" source="wxon_P1c7T2_PDzqhW2S-24" target="wxon_P1c7T2_PDzqhW2S-86" edge="1">
          <mxGeometry relative="1" as="geometry" />
        </mxCell>
        <mxCell id="wxon_P1c7T2_PDzqhW2S-24" value="&lt;b&gt;SQLiteSupplierRepository&lt;/b&gt;" style="swimlane;fontStyle=1;align=center;verticalAlign=top;childLayout=stackLayout;horizontal=1;startSize=26;horizontalStack=0;resizeParent=1;resizeParentMax=0;resizeLast=0;collapsible=1;marginBottom=0;whiteSpace=wrap;html=1;" parent="wxon_P1c7T2_PDzqhW2S-1" collapsed="1" vertex="1">
          <mxGeometry x="1220" y="340" width="190" height="30" as="geometry">
            <mxRectangle x="1220" y="330" width="220" height="50" as="alternateBounds" />
          </mxGeometry>
        </mxCell>
        <mxCell id="wxon_P1c7T2_PDzqhW2S-25" value="" style="line;strokeWidth=1;fillColor=none;align=left;verticalAlign=middle;spacingTop=-1;spacingLeft=3;spacingRight=3;rotatable=0;labelPosition=right;points=[];portConstraint=eastwest;strokeColor=inherit;" parent="wxon_P1c7T2_PDzqhW2S-24" vertex="1">
          <mxGeometry y="26" width="220" height="24" as="geometry" />
        </mxCell>
        <mxCell id="wxon_P1c7T2_PDzqhW2S-26" value="&lt;b&gt;InMemorySupplierRepository&lt;/b&gt;" style="swimlane;fontStyle=1;align=center;verticalAlign=top;childLayout=stackLayout;horizontal=1;startSize=26;horizontalStack=0;resizeParent=1;resizeParentMax=0;resizeLast=0;collapsible=1;marginBottom=0;whiteSpace=wrap;html=1;" parent="wxon_P1c7T2_PDzqhW2S-1" collapsed="1" vertex="1">
          <mxGeometry x="1220" y="440" width="210" height="30" as="geometry">
            <mxRectangle x="744.5" y="763" width="190" height="50" as="alternateBounds" />
          </mxGeometry>
        </mxCell>
        <mxCell id="wxon_P1c7T2_PDzqhW2S-27" value="" style="line;strokeWidth=1;fillColor=none;align=left;verticalAlign=middle;spacingTop=-1;spacingLeft=3;spacingRight=3;rotatable=0;labelPosition=right;points=[];portConstraint=eastwest;strokeColor=inherit;" parent="wxon_P1c7T2_PDzqhW2S-26" vertex="1">
          <mxGeometry y="26" width="190" height="24" as="geometry" />
        </mxCell>
        <mxCell id="wxon_P1c7T2_PDzqhW2S-28" style="rounded=0;orthogonalLoop=1;jettySize=auto;html=1;entryX=1;entryY=0.5;entryDx=0;entryDy=0;endSize=12;endArrow=block;endFill=0;dashed=1;edgeStyle=orthogonalEdgeStyle;" parent="wxon_P1c7T2_PDzqhW2S-1" source="wxon_P1c7T2_PDzqhW2S-26" target="wxon_P1c7T2_PDzqhW2S-19" edge="1">
          <mxGeometry relative="1" as="geometry" />
        </mxCell>
        <mxCell id="wxon_P1c7T2_PDzqhW2S-29" value="PersistenceException" style="swimlane;fontStyle=1;align=center;verticalAlign=top;childLayout=stackLayout;horizontal=1;startSize=26;horizontalStack=0;resizeParent=1;resizeParentMax=0;resizeLast=0;collapsible=1;marginBottom=0;whiteSpace=wrap;html=1;" parent="wxon_P1c7T2_PDzqhW2S-1" collapsed="1" vertex="1">
          <mxGeometry x="863.25" y="534" width="179" height="30" as="geometry">
            <mxRectangle x="441.5" y="880" width="160" height="34" as="alternateBounds" />
          </mxGeometry>
        </mxCell>
        <mxCell id="wxon_P1c7T2_PDzqhW2S-30" value="" style="line;strokeWidth=1;fillColor=none;align=left;verticalAlign=middle;spacingTop=-1;spacingLeft=3;spacingRight=3;rotatable=0;labelPosition=right;points=[];portConstraint=eastwest;strokeColor=inherit;" parent="wxon_P1c7T2_PDzqhW2S-29" vertex="1">
          <mxGeometry y="26" width="160" height="8" as="geometry" />
        </mxCell>
        <mxCell id="wxon_P1c7T2_PDzqhW2S-31" style="edgeStyle=orthogonalEdgeStyle;rounded=0;orthogonalLoop=1;jettySize=auto;html=1;entryX=0;entryY=0.5;entryDx=0;entryDy=0;endArrow=open;endFill=0;dashed=1;endSize=12;startSize=12;" parent="wxon_P1c7T2_PDzqhW2S-1" source="wxon_P1c7T2_PDzqhW2S-32" target="wxon_P1c7T2_PDzqhW2S-9" edge="1">
          <mxGeometry relative="1" as="geometry">
            <mxPoint x="120" y="400" as="targetPoint" />
          </mxGeometry>
        </mxCell>
        <mxCell id="wxon_P1c7T2_PDzqhW2S-32" value="SupplierView" style="swimlane;fontStyle=1;align=center;verticalAlign=top;childLayout=stackLayout;horizontal=1;startSize=26;horizontalStack=0;resizeParent=1;resizeParentMax=0;resizeLast=0;collapsible=1;marginBottom=0;whiteSpace=wrap;html=1;" parent="wxon_P1c7T2_PDzqhW2S-1" vertex="1">
          <mxGeometry x="-280" y="389" width="220" height="34" as="geometry" />
        </mxCell>
        <mxCell id="wxon_P1c7T2_PDzqhW2S-33" value="" style="line;strokeWidth=1;fillColor=none;align=left;verticalAlign=middle;spacingTop=-1;spacingLeft=3;spacingRight=3;rotatable=0;labelPosition=right;points=[];portConstraint=eastwest;strokeColor=inherit;" parent="wxon_P1c7T2_PDzqhW2S-32" vertex="1">
          <mxGeometry y="26" width="220" height="8" as="geometry" />
        </mxCell>
        <mxCell id="wxon_P1c7T2_PDzqhW2S-34" value="&lt;i style=&quot;font-weight: normal;&quot;&gt;&amp;lt;&amp;lt;interface&amp;gt;&amp;gt;&lt;/i&gt;&lt;br&gt;IPasswordValidator" style="swimlane;fontStyle=1;align=center;verticalAlign=top;childLayout=stackLayout;horizontal=1;startSize=39;horizontalStack=0;resizeParent=1;resizeParentMax=0;resizeLast=0;collapsible=1;marginBottom=0;whiteSpace=wrap;html=1;" parent="wxon_P1c7T2_PDzqhW2S-1" vertex="1">
          <mxGeometry x="526" y="183" width="201" height="47" as="geometry">
            <mxRectangle x="488.5" y="351" width="140" height="49" as="alternateBounds" />
          </mxGeometry>
        </mxCell>
        <mxCell id="wxon_P1c7T2_PDzqhW2S-35" value="" style="line;strokeWidth=1;fillColor=none;align=left;verticalAlign=middle;spacingTop=-1;spacingLeft=3;spacingRight=3;rotatable=0;labelPosition=right;points=[];portConstraint=eastwest;strokeColor=inherit;" parent="wxon_P1c7T2_PDzqhW2S-34" vertex="1">
          <mxGeometry y="39" width="201" height="8" as="geometry" />
        </mxCell>
        <mxCell id="wxon_P1c7T2_PDzqhW2S-36" value="&lt;span style=&quot;font-weight: normal;&quot;&gt;&lt;i&gt;&amp;lt;&amp;lt;interface&amp;gt;&amp;gt;&lt;/i&gt;&lt;/span&gt;&lt;br&gt;IUsernameValidator" style="swimlane;fontStyle=1;align=center;verticalAlign=top;childLayout=stackLayout;horizontal=1;startSize=44;horizontalStack=0;resizeParent=1;resizeParentMax=0;resizeLast=0;collapsible=1;marginBottom=0;whiteSpace=wrap;html=1;" parent="wxon_P1c7T2_PDzqhW2S-1" vertex="1">
          <mxGeometry x="530" y="252" width="201" height="52" as="geometry">
            <mxRectangle x="488.5" y="446" width="150" height="54" as="alternateBounds" />
          </mxGeometry>
        </mxCell>
        <mxCell id="wxon_P1c7T2_PDzqhW2S-37" value="" style="line;strokeWidth=1;fillColor=none;align=left;verticalAlign=middle;spacingTop=-1;spacingLeft=3;spacingRight=3;rotatable=0;labelPosition=right;points=[];portConstraint=eastwest;strokeColor=inherit;" parent="wxon_P1c7T2_PDzqhW2S-36" vertex="1">
          <mxGeometry y="44" width="201" height="8" as="geometry" />
        </mxCell>
        <mxCell id="wxon_P1c7T2_PDzqhW2S-38" value="&lt;b&gt;SupplierServices&lt;/b&gt;" style="swimlane;fontStyle=1;align=center;verticalAlign=top;childLayout=stackLayout;horizontal=1;startSize=26;horizontalStack=0;resizeParent=1;resizeParentMax=0;resizeLast=0;collapsible=1;marginBottom=0;whiteSpace=wrap;html=1;" parent="wxon_P1c7T2_PDzqhW2S-1" vertex="1">
          <mxGeometry x="154.5" y="230" width="251" height="34" as="geometry">
            <mxRectangle x="110" y="380" width="140" height="30" as="alternateBounds" />
          </mxGeometry>
        </mxCell>
        <mxCell id="wxon_P1c7T2_PDzqhW2S-39" value="" style="line;strokeWidth=1;fillColor=none;align=left;verticalAlign=middle;spacingTop=-1;spacingLeft=3;spacingRight=3;rotatable=0;labelPosition=right;points=[];portConstraint=eastwest;strokeColor=inherit;" parent="wxon_P1c7T2_PDzqhW2S-38" vertex="1">
          <mxGeometry y="26" width="251" height="8" as="geometry" />
        </mxCell>
        <mxCell id="wxon_P1c7T2_PDzqhW2S-40" style="rounded=0;orthogonalLoop=1;jettySize=auto;html=1;dashed=1;endArrow=open;endFill=0;endSize=12;edgeStyle=orthogonalEdgeStyle;entryX=0;entryY=0.5;entryDx=0;entryDy=0;exitX=1;exitY=0.5;exitDx=0;exitDy=0;" parent="wxon_P1c7T2_PDzqhW2S-1" source="wxon_P1c7T2_PDzqhW2S-38" target="wxon_P1c7T2_PDzqhW2S-36" edge="1">
          <mxGeometry relative="1" as="geometry">
            <mxPoint x="367.5" y="270" as="sourcePoint" />
            <mxPoint x="500" y="286" as="targetPoint" />
            <Array as="points">
              <mxPoint x="460" y="247" />
              <mxPoint x="460" y="278" />
            </Array>
          </mxGeometry>
        </mxCell>
        <mxCell id="wxon_P1c7T2_PDzqhW2S-41" style="rounded=0;orthogonalLoop=1;jettySize=auto;html=1;dashed=1;endArrow=open;endFill=0;endSize=12;exitX=1;exitY=0.5;exitDx=0;exitDy=0;edgeStyle=orthogonalEdgeStyle;entryX=0;entryY=0.5;entryDx=0;entryDy=0;" parent="wxon_P1c7T2_PDzqhW2S-1" source="wxon_P1c7T2_PDzqhW2S-38" target="wxon_P1c7T2_PDzqhW2S-34" edge="1">
          <mxGeometry relative="1" as="geometry">
            <mxPoint x="298" y="454" as="sourcePoint" />
            <mxPoint x="523.5" y="230" as="targetPoint" />
          </mxGeometry>
        </mxCell>
        <mxCell id="wxon_P1c7T2_PDzqhW2S-42" value="InvalidPasswordException" style="swimlane;fontStyle=1;align=center;verticalAlign=top;childLayout=stackLayout;horizontal=1;startSize=26;horizontalStack=0;resizeParent=1;resizeParentMax=0;resizeLast=0;collapsible=1;marginBottom=0;whiteSpace=wrap;html=1;" parent="wxon_P1c7T2_PDzqhW2S-1" collapsed="1" vertex="1">
          <mxGeometry x="60" y="100" width="180" height="30" as="geometry">
            <mxRectangle x="-40" y="280" width="180" height="34" as="alternateBounds" />
          </mxGeometry>
        </mxCell>
        <mxCell id="wxon_P1c7T2_PDzqhW2S-43" value="" style="line;strokeWidth=1;fillColor=none;align=left;verticalAlign=middle;spacingTop=-1;spacingLeft=3;spacingRight=3;rotatable=0;labelPosition=right;points=[];portConstraint=eastwest;strokeColor=inherit;" parent="wxon_P1c7T2_PDzqhW2S-42" vertex="1">
          <mxGeometry y="26" width="180" height="8" as="geometry" />
        </mxCell>
        <mxCell id="wxon_P1c7T2_PDzqhW2S-44" value="InvalidUsernameException" style="swimlane;fontStyle=1;align=center;verticalAlign=top;childLayout=stackLayout;horizontal=1;startSize=26;horizontalStack=0;resizeParent=1;resizeParentMax=0;resizeLast=0;collapsible=1;marginBottom=0;whiteSpace=wrap;html=1;" parent="wxon_P1c7T2_PDzqhW2S-1" collapsed="1" vertex="1">
          <mxGeometry x="290" y="100" width="180" height="30" as="geometry">
            <mxRectangle x="220" y="288" width="180" height="34" as="alternateBounds" />
          </mxGeometry>
        </mxCell>
        <mxCell id="wxon_P1c7T2_PDzqhW2S-45" value="" style="line;strokeWidth=1;fillColor=none;align=left;verticalAlign=middle;spacingTop=-1;spacingLeft=3;spacingRight=3;rotatable=0;labelPosition=right;points=[];portConstraint=eastwest;strokeColor=inherit;" parent="wxon_P1c7T2_PDzqhW2S-44" vertex="1">
          <mxGeometry y="26" width="180" height="8" as="geometry" />
        </mxCell>
        <mxCell id="wxon_P1c7T2_PDzqhW2S-46" style="rounded=0;orthogonalLoop=1;jettySize=auto;html=1;entryX=0.5;entryY=1;entryDx=0;entryDy=0;dashed=1;endArrow=open;endFill=0;endSize=12;edgeStyle=orthogonalEdgeStyle;" parent="wxon_P1c7T2_PDzqhW2S-1" source="wxon_P1c7T2_PDzqhW2S-38" target="wxon_P1c7T2_PDzqhW2S-44" edge="1">
          <mxGeometry relative="1" as="geometry">
            <mxPoint x="401.46000000000004" y="115" as="targetPoint" />
          </mxGeometry>
        </mxCell>
        <mxCell id="wxon_P1c7T2_PDzqhW2S-47" style="rounded=0;orthogonalLoop=1;jettySize=auto;html=1;entryX=0.5;entryY=1;entryDx=0;entryDy=0;endArrow=open;endFill=0;endSize=12;dashed=1;edgeStyle=orthogonalEdgeStyle;" parent="wxon_P1c7T2_PDzqhW2S-1" source="wxon_P1c7T2_PDzqhW2S-38" target="wxon_P1c7T2_PDzqhW2S-42" edge="1">
          <mxGeometry relative="1" as="geometry">
            <mxPoint x="144.51999999999998" y="83.00199999999995" as="targetPoint" />
          </mxGeometry>
        </mxCell>
        <mxCell id="wxon_P1c7T2_PDzqhW2S-48" style="edgeStyle=orthogonalEdgeStyle;rounded=0;orthogonalLoop=1;jettySize=auto;html=1;entryX=0.5;entryY=1;entryDx=0;entryDy=0;endArrow=open;endFill=0;dashed=1;endSize=12;startSize=12;" parent="wxon_P1c7T2_PDzqhW2S-1" source="wxon_P1c7T2_PDzqhW2S-50" target="wxon_P1c7T2_PDzqhW2S-75" edge="1">
          <mxGeometry relative="1" as="geometry" />
        </mxCell>
        <mxCell id="wxon_P1c7T2_PDzqhW2S-49" style="edgeStyle=orthogonalEdgeStyle;rounded=0;orthogonalLoop=1;jettySize=auto;html=1;entryX=0;entryY=0.5;entryDx=0;entryDy=0;endArrow=open;endFill=0;dashed=1;endSize=12;startSize=12;" parent="wxon_P1c7T2_PDzqhW2S-1" source="wxon_P1c7T2_PDzqhW2S-50" target="wxon_P1c7T2_PDzqhW2S-60" edge="1">
          <mxGeometry relative="1" as="geometry">
            <mxPoint x="830" y="912.9999999999999" as="targetPoint" />
          </mxGeometry>
        </mxCell>
        <mxCell id="wxon_P1c7T2_PDzqhW2S-50" value="&lt;b&gt;KitchenController&lt;/b&gt;" style="swimlane;fontStyle=1;align=center;verticalAlign=top;childLayout=stackLayout;horizontal=1;startSize=26;horizontalStack=0;resizeParent=1;resizeParentMax=0;resizeLast=0;collapsible=1;marginBottom=0;whiteSpace=wrap;html=1;" parent="wxon_P1c7T2_PDzqhW2S-1" vertex="1">
          <mxGeometry x="187" y="857" width="201" height="100" as="geometry">
            <mxRectangle x="189.5" y="859" width="150" height="30" as="alternateBounds" />
          </mxGeometry>
        </mxCell>
        <mxCell id="wxon_P1c7T2_PDzqhW2S-51" value="- kitchens: List&amp;lt;Kitchen&amp;gt;" style="text;strokeColor=none;fillColor=none;align=left;verticalAlign=top;spacingLeft=4;spacingRight=4;overflow=hidden;rotatable=0;points=[[0,0.5],[1,0.5]];portConstraint=eastwest;whiteSpace=wrap;html=1;" parent="wxon_P1c7T2_PDzqhW2S-50" vertex="1">
          <mxGeometry y="26" width="201" height="24" as="geometry" />
        </mxCell>
        <mxCell id="wxon_P1c7T2_PDzqhW2S-52" value="" style="line;strokeWidth=1;fillColor=none;align=left;verticalAlign=middle;spacingTop=-1;spacingLeft=3;spacingRight=3;rotatable=0;labelPosition=right;points=[];portConstraint=eastwest;strokeColor=inherit;" parent="wxon_P1c7T2_PDzqhW2S-50" vertex="1">
          <mxGeometry y="50" width="201" height="8" as="geometry" />
        </mxCell>
        <mxCell id="wxon_P1c7T2_PDzqhW2S-53" value="+ add_kitchen(name)" style="text;strokeColor=none;fillColor=none;align=left;verticalAlign=top;spacingLeft=4;spacingRight=4;overflow=hidden;rotatable=0;points=[[0,0.5],[1,0.5]];portConstraint=eastwest;whiteSpace=wrap;html=1;" parent="wxon_P1c7T2_PDzqhW2S-50" vertex="1">
          <mxGeometry y="58" width="201" height="42" as="geometry" />
        </mxCell>
        <mxCell id="wxon_P1c7T2_PDzqhW2S-54" style="edgeStyle=orthogonalEdgeStyle;rounded=0;orthogonalLoop=1;jettySize=auto;html=1;entryX=0.5;entryY=1;entryDx=0;entryDy=0;endArrow=diamond;endFill=0;endSize=12;" parent="wxon_P1c7T2_PDzqhW2S-1" source="wxon_P1c7T2_PDzqhW2S-55" target="wxon_P1c7T2_PDzqhW2S-50" edge="1">
          <mxGeometry relative="1" as="geometry">
            <mxPoint x="297.5" y="986" as="targetPoint" />
          </mxGeometry>
        </mxCell>
        <mxCell id="wxon_P1c7T2_PDzqhW2S-55" value="&lt;b&gt;Kitchen&lt;/b&gt;" style="swimlane;fontStyle=1;align=center;verticalAlign=top;childLayout=stackLayout;horizontal=1;startSize=26;horizontalStack=0;resizeParent=1;resizeParentMax=0;resizeLast=0;collapsible=1;marginBottom=0;whiteSpace=wrap;html=1;" parent="wxon_P1c7T2_PDzqhW2S-1" vertex="1">
          <mxGeometry x="413" y="1006" width="160" height="114" as="geometry" />
        </mxCell>
        <mxCell id="wxon_P1c7T2_PDzqhW2S-56" value="+ name&lt;div&gt;+ username&lt;/div&gt;&lt;div&gt;+ password&lt;/div&gt;" style="text;strokeColor=none;fillColor=none;align=left;verticalAlign=top;spacingLeft=4;spacingRight=4;overflow=hidden;rotatable=0;points=[[0,0.5],[1,0.5]];portConstraint=eastwest;whiteSpace=wrap;html=1;" parent="wxon_P1c7T2_PDzqhW2S-55" vertex="1">
          <mxGeometry y="26" width="160" height="54" as="geometry" />
        </mxCell>
        <mxCell id="wxon_P1c7T2_PDzqhW2S-57" value="" style="line;strokeWidth=1;fillColor=none;align=left;verticalAlign=middle;spacingTop=-1;spacingLeft=3;spacingRight=3;rotatable=0;labelPosition=right;points=[];portConstraint=eastwest;strokeColor=inherit;" parent="wxon_P1c7T2_PDzqhW2S-55" vertex="1">
          <mxGeometry y="80" width="160" height="8" as="geometry" />
        </mxCell>
        <mxCell id="wxon_P1c7T2_PDzqhW2S-58" value="+ toSring()" style="text;strokeColor=none;fillColor=none;align=left;verticalAlign=top;spacingLeft=4;spacingRight=4;overflow=hidden;rotatable=0;points=[[0,0.5],[1,0.5]];portConstraint=eastwest;whiteSpace=wrap;html=1;" parent="wxon_P1c7T2_PDzqhW2S-55" vertex="1">
          <mxGeometry y="88" width="160" height="26" as="geometry" />
        </mxCell>
        <mxCell id="wxon_P1c7T2_PDzqhW2S-59" style="edgeStyle=orthogonalEdgeStyle;rounded=0;orthogonalLoop=1;jettySize=auto;html=1;entryX=0.5;entryY=0;entryDx=0;entryDy=0;endArrow=open;endFill=0;endSize=12;dashed=1;" parent="wxon_P1c7T2_PDzqhW2S-1" source="wxon_P1c7T2_PDzqhW2S-60" target="wxon_P1c7T2_PDzqhW2S-69" edge="1">
          <mxGeometry relative="1" as="geometry" />
        </mxCell>
        <mxCell id="wxon_P1c7T2_PDzqhW2S-60" value="&lt;div&gt;&lt;span style=&quot;font-weight: normal;&quot;&gt;&lt;i&gt;&amp;lt;&amp;lt;interface&amp;gt;&amp;gt;&lt;/i&gt;&lt;/span&gt;&lt;/div&gt;&lt;b&gt;I&lt;/b&gt;&lt;b&gt;Kitchen&lt;/b&gt;&lt;b&gt;Repository&lt;/b&gt;" style="swimlane;fontStyle=1;align=center;verticalAlign=top;childLayout=stackLayout;horizontal=1;startSize=40;horizontalStack=0;resizeParent=1;resizeParentMax=0;resizeLast=0;collapsible=1;marginBottom=0;whiteSpace=wrap;html=1;" parent="wxon_P1c7T2_PDzqhW2S-1" vertex="1">
          <mxGeometry x="870" y="833" width="185.5" height="150" as="geometry">
            <mxRectangle x="860" y="330" width="150" height="50" as="alternateBounds" />
          </mxGeometry>
        </mxCell>
        <mxCell id="wxon_P1c7T2_PDzqhW2S-61" value="" style="line;strokeWidth=1;fillColor=none;align=left;verticalAlign=middle;spacingTop=-1;spacingLeft=3;spacingRight=3;rotatable=0;labelPosition=right;points=[];portConstraint=eastwest;strokeColor=inherit;" parent="wxon_P1c7T2_PDzqhW2S-60" vertex="1">
          <mxGeometry y="40" width="185.5" height="20" as="geometry" />
        </mxCell>
        <mxCell id="wxon_P1c7T2_PDzqhW2S-62" value="+ create(kitchen)&lt;div&gt;+ delete(alias)&lt;/div&gt;&lt;div&gt;+ update(alias, kitchen)&lt;/div&gt;&lt;div&gt;+ get(alias)&lt;/div&gt;&lt;div&gt;+ getAll()&lt;/div&gt;" style="text;strokeColor=none;fillColor=none;align=left;verticalAlign=top;spacingLeft=4;spacingRight=4;overflow=hidden;rotatable=0;points=[[0,0.5],[1,0.5]];portConstraint=eastwest;whiteSpace=wrap;html=1;" parent="wxon_P1c7T2_PDzqhW2S-60" vertex="1">
          <mxGeometry y="60" width="185.5" height="90" as="geometry" />
        </mxCell>
        <mxCell id="wxon_P1c7T2_PDzqhW2S-63" style="rounded=0;orthogonalLoop=1;jettySize=auto;html=1;entryX=1;entryY=0.5;entryDx=0;entryDy=0;endSize=12;endArrow=block;endFill=0;dashed=1;edgeStyle=orthogonalEdgeStyle;" parent="wxon_P1c7T2_PDzqhW2S-1" source="wxon_P1c7T2_PDzqhW2S-64" target="wxon_P1c7T2_PDzqhW2S-60" edge="1">
          <mxGeometry relative="1" as="geometry">
            <mxPoint x="978.5" y="1000" as="targetPoint" />
          </mxGeometry>
        </mxCell>
        <mxCell id="wxon_P1c7T2_PDzqhW2S-64" value="&lt;b&gt;SQLite&lt;/b&gt;&lt;b&gt;Kitchen&lt;/b&gt;&lt;b&gt;Repository&lt;/b&gt;" style="swimlane;fontStyle=1;align=center;verticalAlign=top;childLayout=stackLayout;horizontal=1;startSize=26;horizontalStack=0;resizeParent=1;resizeParentMax=0;resizeLast=0;collapsible=1;marginBottom=0;whiteSpace=wrap;html=1;" parent="wxon_P1c7T2_PDzqhW2S-1" collapsed="1" vertex="1">
          <mxGeometry x="1230" y="833" width="190" height="30" as="geometry">
            <mxRectangle x="729.5" y="683" width="220" height="50" as="alternateBounds" />
          </mxGeometry>
        </mxCell>
        <mxCell id="wxon_P1c7T2_PDzqhW2S-65" value="" style="line;strokeWidth=1;fillColor=none;align=left;verticalAlign=middle;spacingTop=-1;spacingLeft=3;spacingRight=3;rotatable=0;labelPosition=right;points=[];portConstraint=eastwest;strokeColor=inherit;" parent="wxon_P1c7T2_PDzqhW2S-64" vertex="1">
          <mxGeometry y="26" width="220" height="24" as="geometry" />
        </mxCell>
        <mxCell id="wxon_P1c7T2_PDzqhW2S-66" value="&lt;b&gt;InMemory&lt;/b&gt;&lt;b&gt;Kitchen&lt;/b&gt;&lt;b&gt;Repository&lt;/b&gt;" style="swimlane;fontStyle=1;align=center;verticalAlign=top;childLayout=stackLayout;horizontal=1;startSize=26;horizontalStack=0;resizeParent=1;resizeParentMax=0;resizeLast=0;collapsible=1;marginBottom=0;whiteSpace=wrap;html=1;" parent="wxon_P1c7T2_PDzqhW2S-1" collapsed="1" vertex="1">
          <mxGeometry x="1230" y="929" width="210" height="30" as="geometry">
            <mxRectangle x="744.5" y="763" width="190" height="50" as="alternateBounds" />
          </mxGeometry>
        </mxCell>
        <mxCell id="wxon_P1c7T2_PDzqhW2S-67" value="" style="line;strokeWidth=1;fillColor=none;align=left;verticalAlign=middle;spacingTop=-1;spacingLeft=3;spacingRight=3;rotatable=0;labelPosition=right;points=[];portConstraint=eastwest;strokeColor=inherit;" parent="wxon_P1c7T2_PDzqhW2S-66" vertex="1">
          <mxGeometry y="26" width="190" height="24" as="geometry" />
        </mxCell>
        <mxCell id="wxon_P1c7T2_PDzqhW2S-68" style="rounded=0;orthogonalLoop=1;jettySize=auto;html=1;entryX=1;entryY=0.5;entryDx=0;entryDy=0;endSize=12;endArrow=block;endFill=0;dashed=1;edgeStyle=orthogonalEdgeStyle;" parent="wxon_P1c7T2_PDzqhW2S-1" source="wxon_P1c7T2_PDzqhW2S-66" target="wxon_P1c7T2_PDzqhW2S-60" edge="1">
          <mxGeometry relative="1" as="geometry" />
        </mxCell>
        <mxCell id="wxon_P1c7T2_PDzqhW2S-69" value="PersistenceException" style="swimlane;fontStyle=1;align=center;verticalAlign=top;childLayout=stackLayout;horizontal=1;startSize=26;horizontalStack=0;resizeParent=1;resizeParentMax=0;resizeLast=0;collapsible=1;marginBottom=0;whiteSpace=wrap;html=1;" parent="wxon_P1c7T2_PDzqhW2S-1" collapsed="1" vertex="1">
          <mxGeometry x="873.25" y="1037" width="179" height="30" as="geometry">
            <mxRectangle x="441.5" y="880" width="160" height="34" as="alternateBounds" />
          </mxGeometry>
        </mxCell>
        <mxCell id="wxon_P1c7T2_PDzqhW2S-70" value="" style="line;strokeWidth=1;fillColor=none;align=left;verticalAlign=middle;spacingTop=-1;spacingLeft=3;spacingRight=3;rotatable=0;labelPosition=right;points=[];portConstraint=eastwest;strokeColor=inherit;" parent="wxon_P1c7T2_PDzqhW2S-69" vertex="1">
          <mxGeometry y="26" width="160" height="8" as="geometry" />
        </mxCell>
        <mxCell id="wxon_P1c7T2_PDzqhW2S-71" style="edgeStyle=orthogonalEdgeStyle;rounded=0;orthogonalLoop=1;jettySize=auto;html=1;entryX=0;entryY=0.5;entryDx=0;entryDy=0;endArrow=open;endFill=0;dashed=1;endSize=12;startSize=12;" parent="wxon_P1c7T2_PDzqhW2S-1" source="wxon_P1c7T2_PDzqhW2S-73" target="wxon_P1c7T2_PDzqhW2S-50" edge="1">
          <mxGeometry relative="1" as="geometry">
            <mxPoint x="130" y="903" as="targetPoint" />
          </mxGeometry>
        </mxCell>
        <mxCell id="wxon_P1c7T2_PDzqhW2S-72" style="edgeStyle=orthogonalEdgeStyle;rounded=0;orthogonalLoop=1;jettySize=auto;html=1;entryX=0;entryY=0.5;entryDx=0;entryDy=0;endSize=12;startSize=12;endArrow=open;endFill=0;dashed=1;" parent="wxon_P1c7T2_PDzqhW2S-1" source="wxon_P1c7T2_PDzqhW2S-73" target="wxon_P1c7T2_PDzqhW2S-79" edge="1">
          <mxGeometry relative="1" as="geometry">
            <mxPoint x="-70" y="680" as="targetPoint" />
          </mxGeometry>
        </mxCell>
        <mxCell id="wxon_P1c7T2_PDzqhW2S-73" value="KitchenView" style="swimlane;fontStyle=1;align=center;verticalAlign=top;childLayout=stackLayout;horizontal=1;startSize=26;horizontalStack=0;resizeParent=1;resizeParentMax=0;resizeLast=0;collapsible=1;marginBottom=0;whiteSpace=wrap;html=1;" parent="wxon_P1c7T2_PDzqhW2S-1" vertex="1">
          <mxGeometry x="-280" y="890" width="220" height="34" as="geometry" />
        </mxCell>
        <mxCell id="wxon_P1c7T2_PDzqhW2S-74" value="" style="line;strokeWidth=1;fillColor=none;align=left;verticalAlign=middle;spacingTop=-1;spacingLeft=3;spacingRight=3;rotatable=0;labelPosition=right;points=[];portConstraint=eastwest;strokeColor=inherit;" parent="wxon_P1c7T2_PDzqhW2S-73" vertex="1">
          <mxGeometry y="26" width="220" height="8" as="geometry" />
        </mxCell>
        <mxCell id="wxon_P1c7T2_PDzqhW2S-75" value="&lt;b&gt;Kitchen&lt;/b&gt;&lt;b&gt;Services&lt;/b&gt;" style="swimlane;fontStyle=1;align=center;verticalAlign=top;childLayout=stackLayout;horizontal=1;startSize=26;horizontalStack=0;resizeParent=1;resizeParentMax=0;resizeLast=0;collapsible=1;marginBottom=0;whiteSpace=wrap;html=1;" parent="wxon_P1c7T2_PDzqhW2S-1" vertex="1">
          <mxGeometry x="162" y="720" width="251" height="34" as="geometry">
            <mxRectangle x="170" y="720" width="140" height="30" as="alternateBounds" />
          </mxGeometry>
        </mxCell>
        <mxCell id="wxon_P1c7T2_PDzqhW2S-76" value="" style="line;strokeWidth=1;fillColor=none;align=left;verticalAlign=middle;spacingTop=-1;spacingLeft=3;spacingRight=3;rotatable=0;labelPosition=right;points=[];portConstraint=eastwest;strokeColor=inherit;" parent="wxon_P1c7T2_PDzqhW2S-75" vertex="1">
          <mxGeometry y="26" width="251" height="8" as="geometry" />
        </mxCell>
        <mxCell id="wxon_P1c7T2_PDzqhW2S-77" style="edgeStyle=orthogonalEdgeStyle;rounded=0;orthogonalLoop=1;jettySize=auto;html=1;entryX=0;entryY=0.5;entryDx=0;entryDy=0;endArrow=open;endFill=0;dashed=1;endSize=12;startSize=12;" parent="wxon_P1c7T2_PDzqhW2S-1" source="wxon_P1c7T2_PDzqhW2S-79" target="wxon_P1c7T2_PDzqhW2S-12" edge="1">
          <mxGeometry relative="1" as="geometry" />
        </mxCell>
        <mxCell id="wxon_P1c7T2_PDzqhW2S-78" style="edgeStyle=orthogonalEdgeStyle;rounded=0;orthogonalLoop=1;jettySize=auto;html=1;entryX=0;entryY=0.5;entryDx=0;entryDy=0;endArrow=open;endFill=0;dashed=1;endSize=12;startSize=12;" parent="wxon_P1c7T2_PDzqhW2S-1" source="wxon_P1c7T2_PDzqhW2S-79" target="wxon_P1c7T2_PDzqhW2S-50" edge="1">
          <mxGeometry relative="1" as="geometry">
            <mxPoint x="70" y="900" as="targetPoint" />
          </mxGeometry>
        </mxCell>
        <mxCell id="wxon_P1c7T2_PDzqhW2S-79" value="ReportFacaSingController" style="swimlane;fontStyle=1;align=center;verticalAlign=top;childLayout=stackLayout;horizontal=1;startSize=26;horizontalStack=0;resizeParent=1;resizeParentMax=0;resizeLast=0;collapsible=1;marginBottom=0;whiteSpace=wrap;html=1;fillColor=#f8cecc;strokeColor=#b85450;" parent="wxon_P1c7T2_PDzqhW2S-1" vertex="1">
          <mxGeometry x="50" y="590" width="160" height="80" as="geometry">
            <mxRectangle x="50" y="590" width="140" height="30" as="alternateBounds" />
          </mxGeometry>
        </mxCell>
        <mxCell id="wxon_P1c7T2_PDzqhW2S-80" value="" style="line;strokeWidth=1;fillColor=none;align=left;verticalAlign=middle;spacingTop=-1;spacingLeft=3;spacingRight=3;rotatable=0;labelPosition=right;points=[];portConstraint=eastwest;strokeColor=inherit;" parent="wxon_P1c7T2_PDzqhW2S-79" vertex="1">
          <mxGeometry y="26" width="160" height="8" as="geometry" />
        </mxCell>
        <mxCell id="wxon_P1c7T2_PDzqhW2S-81" value="+ report()&lt;div&gt;+ get_instance()&lt;/div&gt;" style="text;strokeColor=none;fillColor=none;align=left;verticalAlign=top;spacingLeft=4;spacingRight=4;overflow=hidden;rotatable=0;points=[[0,0.5],[1,0.5]];portConstraint=eastwest;whiteSpace=wrap;html=1;" parent="wxon_P1c7T2_PDzqhW2S-79" vertex="1">
          <mxGeometry y="34" width="160" height="46" as="geometry" />
        </mxCell>
        <mxCell id="wxon_P1c7T2_PDzqhW2S-82" value="SupplierSQLDAO" style="swimlane;fontStyle=1;align=center;verticalAlign=top;childLayout=stackLayout;horizontal=1;startSize=26;horizontalStack=0;resizeParent=1;resizeParentMax=0;resizeLast=0;collapsible=1;marginBottom=0;whiteSpace=wrap;html=1;" parent="wxon_P1c7T2_PDzqhW2S-1" vertex="1">
          <mxGeometry x="1530" y="440" width="200" height="86" as="geometry" />
        </mxCell>
        <mxCell id="wxon_P1c7T2_PDzqhW2S-83" value="+ field: type" style="text;strokeColor=none;fillColor=none;align=left;verticalAlign=top;spacingLeft=4;spacingRight=4;overflow=hidden;rotatable=0;points=[[0,0.5],[1,0.5]];portConstraint=eastwest;whiteSpace=wrap;html=1;" parent="wxon_P1c7T2_PDzqhW2S-82" vertex="1">
          <mxGeometry y="26" width="200" height="26" as="geometry" />
        </mxCell>
        <mxCell id="wxon_P1c7T2_PDzqhW2S-84" value="" style="line;strokeWidth=1;fillColor=none;align=left;verticalAlign=middle;spacingTop=-1;spacingLeft=3;spacingRight=3;rotatable=0;labelPosition=right;points=[];portConstraint=eastwest;strokeColor=inherit;" parent="wxon_P1c7T2_PDzqhW2S-82" vertex="1">
          <mxGeometry y="52" width="200" height="8" as="geometry" />
        </mxCell>
        <mxCell id="wxon_P1c7T2_PDzqhW2S-85" value="+ method(type): type" style="text;strokeColor=none;fillColor=none;align=left;verticalAlign=top;spacingLeft=4;spacingRight=4;overflow=hidden;rotatable=0;points=[[0,0.5],[1,0.5]];portConstraint=eastwest;whiteSpace=wrap;html=1;" parent="wxon_P1c7T2_PDzqhW2S-82" vertex="1">
          <mxGeometry y="60" width="200" height="26" as="geometry" />
        </mxCell>
        <mxCell id="wxon_P1c7T2_PDzqhW2S-86" value="&lt;div&gt;&lt;span style=&quot;font-weight: normal;&quot;&gt;&lt;i&gt;&amp;lt;&amp;lt;interface&amp;gt;&amp;gt;&lt;/i&gt;&lt;/span&gt;&lt;/div&gt;SupplierDAO" style="swimlane;fontStyle=1;align=center;verticalAlign=top;childLayout=stackLayout;horizontal=1;startSize=40;horizontalStack=0;resizeParent=1;resizeParentMax=0;resizeLast=0;collapsible=1;marginBottom=0;whiteSpace=wrap;html=1;" parent="wxon_P1c7T2_PDzqhW2S-1" vertex="1">
          <mxGeometry x="1530" y="298" width="200" height="114" as="geometry" />
        </mxCell>
        <mxCell id="wxon_P1c7T2_PDzqhW2S-87" value="" style="line;strokeWidth=1;fillColor=none;align=left;verticalAlign=middle;spacingTop=-1;spacingLeft=3;spacingRight=3;rotatable=0;labelPosition=right;points=[];portConstraint=eastwest;strokeColor=inherit;" parent="wxon_P1c7T2_PDzqhW2S-86" vertex="1">
          <mxGeometry y="40" width="200" height="8" as="geometry" />
        </mxCell>
        <mxCell id="wxon_P1c7T2_PDzqhW2S-88" value="+ insert(supplier): boolean&lt;div&gt;+ delete(username): boolean&lt;/div&gt;&lt;div&gt;+ findByPK(username): string[]&lt;/div&gt;&lt;div&gt;+ findAll(): string[][]&lt;/div&gt;" style="text;strokeColor=none;fillColor=none;align=left;verticalAlign=top;spacingLeft=4;spacingRight=4;overflow=hidden;rotatable=0;points=[[0,0.5],[1,0.5]];portConstraint=eastwest;whiteSpace=wrap;html=1;" parent="wxon_P1c7T2_PDzqhW2S-86" vertex="1">
          <mxGeometry y="48" width="200" height="66" as="geometry" />
        </mxCell>
        <mxCell id="wxon_P1c7T2_PDzqhW2S-89" value="&lt;div&gt;&lt;span style=&quot;font-weight: normal;&quot;&gt;&lt;i&gt;&amp;lt;&amp;lt;interface&amp;gt;&amp;gt;&lt;/i&gt;&lt;/span&gt;&lt;/div&gt;SupplierDAO" style="swimlane;fontStyle=1;align=center;verticalAlign=top;childLayout=stackLayout;horizontal=1;startSize=40;horizontalStack=0;resizeParent=1;resizeParentMax=0;resizeLast=0;collapsible=1;marginBottom=0;whiteSpace=wrap;html=1;" parent="wxon_P1c7T2_PDzqhW2S-1" vertex="1">
          <mxGeometry x="1540" y="308" width="200" height="114" as="geometry" />
        </mxCell>
        <mxCell id="wxon_P1c7T2_PDzqhW2S-90" value="" style="line;strokeWidth=1;fillColor=none;align=left;verticalAlign=middle;spacingTop=-1;spacingLeft=3;spacingRight=3;rotatable=0;labelPosition=right;points=[];portConstraint=eastwest;strokeColor=inherit;" parent="wxon_P1c7T2_PDzqhW2S-89" vertex="1">
          <mxGeometry y="40" width="200" height="8" as="geometry" />
        </mxCell>
        <mxCell id="wxon_P1c7T2_PDzqhW2S-91" value="+ insert(supplier): boolean&lt;div&gt;+ delete(username): boolean&lt;/div&gt;&lt;div&gt;+ findByPK(username): string[]&lt;/div&gt;&lt;div&gt;+ findAll(): string[][]&lt;/div&gt;" style="text;strokeColor=none;fillColor=none;align=left;verticalAlign=top;spacingLeft=4;spacingRight=4;overflow=hidden;rotatable=0;points=[[0,0.5],[1,0.5]];portConstraint=eastwest;whiteSpace=wrap;html=1;" parent="wxon_P1c7T2_PDzqhW2S-89" vertex="1">
          <mxGeometry y="48" width="200" height="66" as="geometry" />
        </mxCell>
      </root>
    </mxGraphModel>
  </diagram>
</mxfile>
